<?xml version="1.0" encoding="UTF-8"?>
<svg id="Layer_1" data-name="Layer 1" xmlns="http://www.w3.org/2000/svg" viewBox="0 0 222.99 207.45">
  <defs>
    <style>
      .cls-1 {
        fill: #29abe2;
      }

      .cls-2 {
        fill: #0071bc;
      }
    </style>
  </defs>
  <polygon class="cls-1" points="53.18 57.93 43.86 175.51 47.22 179.14 143.48 185.87 137.61 56.72 53.18 57.93"/>
  <polygon class="cls-1" points="149.17 64.32 155.22 163.25 145.04 180.51 147.93 185.87 165.58 176.2 178.19 176.89 180.43 171.71 168 144.6 156.78 62.59 149.17 64.32"/>
  <path class="cls-2" d="M181.95,171.77l-11.03-111.1c-.43-4.26-4.01-7.5-8.28-7.5h-7.25c0-17.85-12.61-35.7-28.02-35.7-4.79,0-9.7,1.9-16.66,7.7-4.69-4.73-10.5-7.7-16.79-7.7-15.41,0-28.01,18.57-28.02,35.71-1.68,0-3.2,0-4.25,0h0s-4.73-.01-4.73-.01c-4.27,0-7.77,3.77-7.87,8.51l-8.07,111.74c-.1,4.63,3.09,8.54,7.27,8.9l94.84,7.62c2.48.19,4.98-.1,7.35-.87l25.69-8.38c3.79-1.24,6.21-4.94,5.81-8.91ZM115.72,53.16h-10.13c0-4.36.81-12.27,5.13-18.19,3.07,5.2,5,11.62,5,18.19ZM79.28,32.13c4.26-5.69,9.59-8.96,14.65-8.96,4.51,0,8.92,2.37,12.58,6.2-5.74,8.32-7.15,17.3-7.15,23.79h-22.97s-1.83,0-4.25,0c0-7.21,2.67-15.07,7.14-21.04ZM48.8,176.11c-.75-.06-1.56-1.07-1.57-2.44l8.05-111.54.02-.31c.03-1.42.89-2.42,1.64-2.42h8.98v6.44c-1.19.99-1.95,2.49-1.95,4.16s.75,3.18,1.95,4.17c.94.8,2.16,1.28,3.5,1.28,1,0,1.92-.27,2.72-.73,1.63-.94,2.72-2.7,2.72-4.72s-1.09-3.77-2.72-4.72v-5.88h43.58v5.88c-1.63.94-2.72,2.7-2.72,4.72s1.09,3.77,2.72,4.72c.8.47,1.73.73,2.72.73,1.34,0,2.56-.47,3.5-1.28,1.19-1,1.95-2.5,1.95-4.17s-.76-3.18-1.95-4.16v-6.44h13.46l5.09,124.09-91.7-7.37ZM121.95,53.16c0-8.47-2.84-16.94-7.47-23.51,4.29-4.76,9.75-6.48,12.9-6.48,11.2,0,21.78,14.58,21.79,29.99h-27.22ZM177.18,174.49c-.23.52-10.23-3.25-14-4.5,0,0-14.84,11.01-15.24,10.5-.4-.5,10.77-11.41,12.91-13.61-1.49-17.48-8.2-97.11-7-97.28,1.21-.17,9.22,80.8,10.89,97.28,4.2,2.41,12.66,7.12,12.45,7.61Z"/>
</svg>