<?xml version="1.0" encoding="UTF-8"?>
<svg id="Layer_1" data-name="Layer 1" xmlns="http://www.w3.org/2000/svg" xmlns:xlink="http://www.w3.org/1999/xlink" viewBox="0 0 222.99 207.45">
  <defs>
    <style>
      .cls-1 {
        fill: url(#linear-gradient-2);
      }

      .cls-2 {
        fill: #fff;
      }

      .cls-3 {
        fill: #f7931e;
      }

      .cls-4 {
        fill: url(#linear-gradient);
      }
    </style>
    <linearGradient id="linear-gradient" x1="122.1" y1="163.9" x2="127.38" y2="163.9" gradientUnits="userSpaceOnUse">
      <stop offset="0" stop-color="#ff0"/>
      <stop offset="1" stop-color="#fbb03b"/>
    </linearGradient>
    <linearGradient id="linear-gradient-2" x1="15.02" y1="103.73" x2="138.98" y2="103.73" xlink:href="#linear-gradient"/>
  </defs>
  <path class="cls-4" d="M122.1,164.04c1.84,0,3.58-.1,5.28-.26-1.74-.03-3.5.05-5.28.26Z"/>
  <path class="cls-3" d="M186.9,41.5c-.44-3.72-4.34-6.63-8.89-6.63h-10.46c.21-2.88.34-5.79.4-8.74,0,0,.01,0,.02,0-21.66,1.87-44.25.91-65.87.91,20,1,41,13,43,34,2,11,4,25-7,32-3,0-5,2-6,3-4,6-6,13-14,15-2,1-2,4-4,6-3,2-7,1-10,1,15,4,5,22,14,31,2,2,6,2,8,4,7-1,14-1,13,9-4.16.69-7.85,1.38-11.72,1.74,14.84.26,27.38,9.23,24.72,26.22h6.61c.98,0,1.77-.79,1.77-1.77v-13.51c0-7.13-5.78-12.9-12.9-12.9h-2.55v-8.7c0-1.18-.96-2.14-2.14-2.14-10.61,0-19.22-8.6-19.22-19.22v-14.2c7.34-2.77,14.14-7.99,20.11-15.13,13.89-3.58,24.59-9.59,31.97-18.01,9.47-10.81,13.22-25.25,11.15-42.92ZM170.31,79.65c-4.82,5.5-11.38,9.85-19.62,13.03,8.1-13.4,13.87-30.91,16.18-50.58h11.14c.87,0,1.5.33,1.74.53,1.75,15.42-1.43,27.87-9.44,37.02Z"/>
  <path class="cls-2" d="M66.95,30.17l20.07,1.17s2.2,59.31,11.4,72.39l-4.4,1.94s-30.43-42.6-27.06-75.5Z"/>
  <path class="cls-1" d="M127.38,163.78c-1.71.16-3.45.26-5.28.26,1.78-.21,3.55-.29,5.28-.26,3.87-.36,7.55-1.05,11.72-1.74,1-10-6-10-13-9-2-2-6-2-8-4-9-9,1-27-14-31,3,0,7,1,10-1,2-2,2-5,4-6,8-2,10-9,14-15,1-1,3-3,6-3,11-7,9-21,7-32-2-21-23-33-43-34,21.62,0,44.21.96,65.87-.91,1.87-.52,3.24-2.22,3.24-4.25h0c0-2.44-1.98-4.42-4.42-4.42H56.2c-2.44,0-4.42,1.98-4.42,4.42h0c0,2.04,1.38,3.75,3.25,4.26.06,2.95.19,5.86.4,8.74h-10.46c-4.55,0-8.45,2.91-8.89,6.63-2.07,17.67,1.68,32.11,11.15,42.92,7.38,8.42,18.07,14.44,31.97,18.01,5.96,7.14,12.77,12.36,20.11,15.13v14.2c0,10.61-8.6,19.22-19.22,19.22-1.18,0-2.14.96-2.14,2.14v8.7h-2.55c-7.13,0-12.9,5.78-12.9,12.9v13.51c0,.98.79,1.77,1.77,1.77h87.83c2.66-16.98-9.88-25.96-24.72-26.22ZM52.68,79.65c-8.02-9.15-11.19-21.6-9.44-37.02.24-.2.87-.53,1.74-.53h11.14c2.31,19.67,8.08,37.18,16.18,50.58-8.24-3.18-14.8-7.52-19.62-13.03ZM94.57,101.6c-1.19-1.3-2.35-2.67-3.47-4.12-10.45-13.41-18.1-32.88-21.19-55.38-.16-1.2-.32-2.4-.45-3.62-.14-1.2-.26-2.4-.37-3.62-.05-.56-.1-1.12-.15-1.69h9.99c0,.57,0,1.13,0,1.69,0,1.23.03,2.43.07,3.62.04,1.23.09,2.43.16,3.62,1.38,23.66,8.74,39.65,14.27,55.71.44,1.27.86,2.53,1.27,3.8.02.06.04.13.06.19-.06-.07-.12-.14-.19-.21Z"/>
</svg>