<?xml version="1.0" encoding="UTF-8"?>
<svg id="Layer_1" data-name="Layer 1" xmlns="http://www.w3.org/2000/svg" xmlns:xlink="http://www.w3.org/1999/xlink" viewBox="0 0 222.99 207.45">
  <defs>
    <style>
      .cls-1 {
        fill: url(#linear-gradient-2);
      }

      .cls-2 {
        fill: url(#linear-gradient);
      }

      .cls-3 {
        fill: #754c24;
      }
    </style>
    <linearGradient id="linear-gradient" x1="68.72" y1="99.05" x2="151.94" y2="99.05" gradientUnits="userSpaceOnUse">
      <stop offset="0" stop-color="#ff0"/>
      <stop offset="1" stop-color="#fbb03b"/>
    </linearGradient>
    <linearGradient id="linear-gradient-2" x1="111.5" y1="7.51" x2="111.5" y2="142.21" gradientUnits="userSpaceOnUse">
      <stop offset="0" stop-color="#c69c6d"/>
      <stop offset="1" stop-color="#754c24"/>
    </linearGradient>
  </defs>
  <path class="cls-2" d="M68.72,81.24l.23,1.7,4.26,31.97,6.22,9.84s15.88,9.67,16.92,9.67h22.45l14.5-2.42s8.63-8.01,10.71-11.08,7.94-13.35,7.94-17.19-2.07-17.02-3.45-17.51-11.4-12.85-14.16-13.92-7.25-3.15-12.43-4.18-8.29-6.22-17.61-3.8-17.61,4.14-19.68,5.53"/>
  <g>
    <path class="cls-3" d="M170.58,151.71v6.21h-9.74v-6.21H62.16v6.21h-9.74v-6.21H19.49v20.81c0,4.89,3.96,8.85,8.85,8.85h166.3c4.89,0,8.85-3.96,8.85-8.85v-20.81h-32.92Z"/>
    <path class="cls-1" d="M194.65,55.2h-42.93v-13.24c0-8.77-7.1-15.88-15.92-15.88h-48.6c-8.77,0-15.92,7.1-15.92,15.88v13.24H28.34c-4.89,0-8.85,3.96-8.85,8.81v82.34h32.92v-6.06h9.74v6.06h98.68v-6.06h9.74v6.06h32.92v-82.34c0-4.85-3.96-8.81-8.85-8.81ZM84.21,38.59h54.58v16.61h-54.58v-16.61ZM140.73,95.1l-10.44,11.84c-.54.62-.78,1.4-.7,2.17l1.47,15.72c.23,2.17-1.94,3.73-3.92,2.87l-14.52-6.29c-.7-.31-1.51-.31-2.25,0l-14.52,6.29c-1.98.85-4.15-.7-3.92-2.87l1.48-15.72c.08-.78-.16-1.55-.7-2.17l-10.44-11.84c-1.44-1.63-.62-4.15,1.47-4.62l15.45-3.46c.78-.15,1.44-.66,1.83-1.32l8.04-13.63c1.09-1.86,3.8-1.86,4.89,0l8.04,13.63c.39.66,1.05,1.16,1.82,1.32l15.45,3.46c2.09.47,2.91,2.99,1.47,4.62Z"/>
  </g>
</svg>