<?xml version="1.0" encoding="UTF-8"?>
<svg id="Layer_1" data-name="Layer 1" xmlns="http://www.w3.org/2000/svg" viewBox="0 0 222.99 207.45">
  <defs>
    <style>
      .cls-1 {
        fill: #fff;
      }

      .cls-2 {
        fill: none;
        stroke: #fbb03b;
        stroke-miterlimit: 10;
        stroke-width: 5.94px;
      }

      .cls-3 {
        fill: #fbb03b;
      }

      .cls-4 {
        fill: #ff0;
      }
    </style>
  </defs>
  <path class="cls-4" d="M22.53,49.27c27.46-38.91,129.72-35.8,148.14,0v24.83c15.09,3.82,25.04,11.06,28.75,22.42v27.8c-2.06,9.22-10.43,14.83-20.71,19.35v16.38c-34.84,36.46-123.36,36.92-149.18.72v-33.99c9.96-11.49,17.21-16.27,23.14-17.79v-7.99c-18.67-6.82-27.74-15.99-29.76-26.91l-.38-24.83Z"/>
  <g>
    <g>
      <path class="cls-3" d="M63.73,95.04c1.48,0,2.68-1.2,2.68-2.68v-11.89c0-1.48-1.2-2.68-2.68-2.68s-2.68,1.2-2.68,2.68v11.89c0,1.48,1.2,2.68,2.68,2.68Z"/>
      <path class="cls-3" d="M194.16,81.31c-3.11-2.55-7.03-4.92-11.65-7.03-3.26-1.49-6.88-2.85-10.77-4.06-1.41-.44-2.92.35-3.35,1.77-.44,1.41.35,2.92,1.77,3.35,3.67,1.14,7.08,2.42,10.13,3.81,4.2,1.92,7.73,4.04,10.48,6.3,4.41,3.62,6.65,7.4,6.65,11.23s-2.24,7.61-6.65,11.23c-2.75,2.26-6.27,4.38-10.48,6.3-2.54,1.16-5.33,2.24-8.3,3.22-.86.28-1.65.54-2.43.77,0,0,0,0,0,0,0,0-.01,0-.02,0-2.62.8-5.39,1.52-8.22,2.16-.85.19-1.7.38-2.57.55,0,0,0,0-.01,0-3.47.71-7.12,1.31-10.86,1.78-.89.11-1.78.22-2.69.32-2.7.3-5.45.53-8.21.7-7.15.44-14.65.44-21.81,0-3.67-.22-7.34-.57-10.89-1.02-3.74-.47-7.39-1.07-10.85-1.78,0,0-.01,0-.02,0-3.76-.77-7.39-1.68-10.79-2.71,0,0-.01,0-.02,0,0,0,0,0,0,0-3.92-1.19-7.53-2.54-10.73-4-1.53-.7-2.99-1.43-4.34-2.19-2.34-1.3-4.4-2.68-6.13-4.11,0,0,0,0,0,0-.94-.77-1.8-1.57-2.54-2.36-.03-.03-.05-.05-.08-.08-.07-.07-.13-.15-.2-.22.09.02.17.04.26.06,1.38.33,2.85.65,4.38.97.79.16,1.61-.04,2.23-.55.03-.02.06-.05.09-.07.01.03.03.05.05.08.02.03.04.06.05.09.08.14.17.27.28.39.15.17.32.32.51.45.95.64,1.97,1.26,3.02,1.85.51.28,1.03.57,1.57.84,1.61.83,3.37,1.64,5.25,2.4,1.52.62,3.11,1.2,4.71,1.74.31.1.61.21.9.3,3.26,1.07,6.77,2.02,10.44,2.83,3.59.79,7.38,1.46,11.29,1.98,3.64.49,7.43.86,11.25,1.1,3.66.24,7.44.36,11.24.36s7.58-.12,11.23-.36c3.4-.21,6.78-.53,10.03-.94,0,0,.01,0,.02,0h0c.28-.03.55-.07.82-.11l.38-.05c3.9-.52,7.7-1.19,11.28-1.98,1.5-.33,2.96-.68,4.33-1.04,2.39-.62,4.75-1.32,7.02-2.09,1.6-.54,3.19-1.13,4.72-1.75,2.5-1.02,4.79-2.11,6.8-3.24,6.81-3.81,10.72-8.12,10.72-11.83s-3.91-8.02-10.71-11.83c-2.02-1.14-4.31-2.23-6.81-3.24-1.52-.62-3.11-1.2-4.7-1.74-.22-.07-.43-.15-.65-.22-1.41-.44-2.92.35-3.36,1.76-.44,1.41.35,2.92,1.76,3.36.18.05.35.11.53.18,1.5.51,2.99,1.06,4.41,1.63,1.72.7,3.32,1.43,4.79,2.19.49.25.96.51,1.42.76.2.11.4.23.6.34.39.23.76.45,1.11.67.18.11.35.22.51.33,4.65,3.03,5.75,5.35,5.75,5.82,0,.47-1.1,2.79-5.76,5.82-.17.11-.34.22-.51.33-.35.22-.72.44-1.11.67-.19.11-.39.23-.6.34-1.82,1.03-3.91,2.02-6.2,2.95-1.43.58-2.91,1.13-4.42,1.64-2.14.73-4.38,1.39-6.65,1.98-1.31.34-2.7.68-4.13.99-3.44.76-7.09,1.4-10.83,1.9l-.38.05c-.26.03-.52.07-.79.1-3.16.4-6.43.71-9.72.92-7.1.46-14.68.46-21.79,0-3.7-.23-7.36-.59-10.88-1.07-3.76-.5-7.4-1.14-10.85-1.9-3.49-.76-6.83-1.67-9.93-2.69-.28-.09-.56-.19-.84-.28-1.5-.51-2.99-1.06-4.41-1.63-2.29-.93-4.37-1.92-6.21-2.95-.5-.28-.98-.56-1.45-.85-.38-.24-.76-.48-1.13-.72-.12-.09-.24-.16-.37-.22-.04-.02-.09-.03-.13-.05-.09-.04-.18-.08-.27-.11-.05-.02-.11-.03-.16-.04-.08-.02-.17-.04-.25-.05-.06,0-.12-.01-.18-.02-.08,0-.16-.01-.25,0-.06,0-.12,0-.18,0-.08,0-.16.02-.24.03-.06.01-.12.02-.18.04-.08.02-.16.05-.24.07-.06.02-.11.04-.17.06-.08.03-.16.07-.23.12-.05.03-.11.06-.16.09-.02,0-.03.02-.05.03v-1.2c0-1.48-1.2-2.68-2.68-2.68-1.25,0-2.3.86-2.6,2.02-.37-.08-.73-.17-1.09-.25-.28-.07-.57-.14-.89-.22l-.93-.23s-.04,0-.06-.01c-.27-.07-.54-.14-.82-.22-.61-.16-1.21-.32-1.81-.49-.02,0-.04-.01-.07-.02-.04-.01-.07-.02-.11-.03v-6.09c0-1.48-1.2-2.68-2.68-2.68s-2.68,1.2-2.68,2.68v6.19c-.39.46-.62,1.06-.62,1.71v6.64c-.75.31-1.47.63-2.17.95-1.16.53-2.27,1.07-3.34,1.63-3.2,1.68-5.99,3.49-8.32,5.4-4.22,3.47-6.95,7.32-8.05,11.33-.37,1.33-.55,2.68-.55,4.04v26.59c0,.16,0,.31,0,.47,0,.1,0,.21.01.32,0,.05,0,.1,0,.15,0,.09.01.18.02.27,0,.13.02.26.04.39,0,.01,0,.03,0,.04,0,.05.01.1.02.15.02.13.03.27.05.37l.05.31s0,.04,0,.06h0s0,.05.01.07l.03.16c.03.17.07.35.1.5,0,.03.01.05.02.08.01.05.03.11.04.16.05.23.11.45.17.66.02.07.04.14.06.21.04.15.09.29.13.44l.02.05s.03.09.05.14c.02.05.04.1.05.16.04.11.08.23.12.34.03.09.07.18.11.27.03.07.05.14.08.21.05.13.11.26.16.39.02.05.05.1.07.15.06.14.13.28.19.41.05.09.09.19.13.29.02.05.05.1.07.14l.04.08s.03.05.04.08c0,0,0,.01.01.02.04.08.08.16.13.24.09.16.18.32.28.49.01.02.02.04.04.06,0,0,0,0,0,0,.1.17.2.33.29.48.06.1.13.2.19.3,0,.01.01.02.02.03.05.07.09.14.14.22.11.16.22.32.33.48.03.04.05.08.08.12.05.07.09.13.14.2.01.02.03.03.04.05.09.12.18.24.27.35.06.08.12.15.18.23.07.09.13.18.2.26.01.02.03.03.04.05l.1.11c.09.11.18.21.25.3l.31.36s.07.08.1.12c.12.14.25.28.38.41.14.16.29.31.47.49l.36.36c.15.15.3.3.44.43.3.29.61.57.9.83.17.15.34.3.5.44.16.14.32.28.5.41.02.02.05.04.07.06l.04.03c.16.13.33.27.49.39.22.17.44.34.67.51.38.29.85.63,1.35.98l.1.07c.16.11.32.22.5.34l.06.04c.2.14.41.27.59.39.6.39,1.14.73,1.66,1.03l.48.28c.25.15.51.3.79.45.05.03.09.05.14.07.24.13.48.26.73.39.13.07.26.14.39.21l.04.02c.08.04.17.09.25.13l.27.14c.18.1.37.19.55.28.09.05.17.09.26.13.18.09.36.18.54.27.2.1.4.19.6.29.05.02.09.05.14.07.31.15.62.29.94.44l.16.07c.14.06.28.13.4.18l.19.08c.1.04.2.09.29.13.26.11.52.22.75.32.22.1.44.19.64.27.11.05.22.09.33.13.11.04.21.09.32.13.1.04.21.08.31.12.11.05.23.1.34.14.13.05.27.1.41.16.18.07.37.14.56.22.12.05.23.09.35.14.26.1.53.2.81.3l.33.12c.29.11.58.21.85.3.16.06.33.11.49.17.05.02.1.04.16.05l.11.04c.16.06.32.11.48.16.25.08.5.17.75.25.14.05.27.09.41.13.83.27,1.67.53,2.52.79.14.04.28.08.42.12,10.3,3.03,22.23,4.93,34.87,5.56.2.01.4.02.6.03.43.02.85.04,1.28.06.09,0,.17,0,.26.01l1.29.04c.64.02,1.28.04,1.9.05.03,0,.06,0,.09,0,.11,0,.22,0,.33,0,.5,0,1,.02,1.51.02h.09c.3,0,.61,0,.87,0,.33,0,.66,0,.99,0s.66,0,.96,0c.3,0,.6,0,.9,0h.09c.61,0,1.21-.02,1.79-.03,0,0,.02,0,.02,0,.03,0,.06,0,.1,0,.64-.01,1.28-.03,1.93-.05l1.28-.04c.09,0,.19,0,.28-.01.38-.02.76-.03,1.14-.05.24-.01.47-.02.71-.03,2.06-.1,4.09-.24,6.11-.41.23-.02.47-.04.68-.06,11.3-.99,21.87-3.03,31-6,.15-.05.29-.09.43-.14.35-.11.69-.23,1.03-.35.06-.02.12-.04.18-.06l.13-.05c.11-.04.23-.08.33-.12.15-.05.3-.11.46-.16.23-.08.46-.16.68-.24l.34-.12c.27-.1.54-.2.8-.3.12-.05.24-.09.37-.14.18-.07.36-.14.53-.21.14-.05.28-.11.41-.16.44-.17.88-.35,1.28-.52.23-.09.45-.19.65-.27.03-.01.06-.03.09-.04.03-.01.06-.03.1-.04.2-.08.39-.17.58-.25.1-.04.2-.09.3-.13l.17-.08c.07-.03.14-.06.21-.09.02,0,.03-.02.05-.02.05-.02.1-.05.15-.07l.17-.08c.11-.05.22-.11.33-.16.38-.17.75-.35,1.11-.53.08-.04.16-.07.24-.11.18-.09.36-.18.53-.26.09-.04.17-.09.26-.13.19-.09.37-.19.56-.28l.27-.14c.09-.05.17-.09.26-.14h.02c.07-.05.14-.08.21-.12.31-.16.62-.33.92-.5.05-.03.1-.05.15-.08.26-.15.52-.29.75-.43.17-.1.34-.2.51-.3.51-.3,1.06-.64,1.63-1.01.07-.05.14-.09.21-.14.01,0,.03-.02.04-.03.12-.08.24-.16.36-.23l.09-.06c.16-.1.31-.21.47-.32l.12-.08c.52-.36.99-.71,1.35-.98.23-.17.45-.34.65-.5.17-.13.34-.27.5-.4l.04-.03s.05-.04.07-.06c0,0,0,0,.01-.01,0,0,0,0,0,0,.16-.13.32-.26.45-.38.18-.15.35-.3.49-.43.32-.28.63-.56.92-.84.15-.14.3-.29.46-.44l.39-.39c.15-.15.3-.31.44-.46.13-.14.25-.27.38-.41.04-.04.07-.08.1-.12l.3-.34c.09-.1.17-.21.26-.31l.1-.12s.03-.03.04-.05c.07-.09.14-.18.21-.27.06-.07.11-.14.17-.21.09-.12.18-.23.27-.35.02-.02.03-.04.05-.07.05-.06.09-.13.14-.2.03-.04.05-.08.08-.12.11-.16.23-.32.34-.49.05-.07.09-.14.14-.21,0,0,0,0,0,0,.06-.1.13-.2.19-.29.09-.14.17-.28.25-.42.02-.04.05-.08.07-.12,0-.01.01-.02.02-.03.1-.16.19-.32.28-.49.04-.08.09-.16.13-.24,0,0,0-.01.01-.02.01-.03.03-.05.04-.08l.04-.08s.03-.06.05-.09l.02-.04c.09-.17.17-.34.24-.51,0,0,0-.01,0-.02.05-.11.1-.22.14-.32.03-.06.05-.12.07-.18.08-.19.16-.38.23-.57.02-.05.04-.1.06-.14.05-.12.09-.24.13-.37,0,0,0,0,0-.01.01-.04.03-.08.04-.12.02-.04.03-.09.05-.13l.02-.06c.05-.14.09-.29.13-.44.1-.35.19-.7.27-1.05,0-.01,0-.02,0-.04.04-.17.07-.35.1-.51l.03-.18s0-.04.01-.07h0s0-.04,0-.06l.04-.28c.02-.13.04-.26.05-.4,0-.08.02-.15.02-.23.01-.12.03-.24.03-.36,0-.09.01-.18.02-.27,0-.06,0-.11,0-.17,0-.1,0-.2.01-.3,0-.16,0-.31,0-.47v-10.64s.08-.03.11-.05c.06-.02.11-.05.17-.07.02,0,.04-.02.06-.03,0,0,0,0,0,0,0,0,0,0,0,0,.02,0,.04-.02.06-.03.23-.1.46-.2.68-.29.11-.05.22-.1.33-.15l.14-.06c.14-.06.28-.13.43-.19l.16-.07c.57-.26,1.13-.53,1.65-.78,0,0,.01,0,.02,0,0,0,.02,0,.03-.01l.29-.14c.09-.04.17-.08.26-.13.08-.04.16-.08.24-.12.17-.09.35-.18.55-.28.19-.1.38-.2.55-.29.43-.22.85-.45,1.27-.69.26-.15.52-.29.74-.43.1-.06.2-.12.31-.18.06-.03.12-.07.18-.11.09-.05.17-.1.26-.15.09-.06.19-.11.28-.17l.16-.09s.07-.04.1-.06c.04-.02.08-.05.13-.08.25-.15.49-.31.71-.45.02-.01.04-.02.05-.03.15-.1.3-.19.45-.29l.15-.1s.04-.03.04-.03l.03-.02c.16-.1.31-.21.47-.32l.12-.08c.5-.35.97-.69,1.35-.98.23-.17.45-.34.63-.49,0,0,.01-.01.02-.02h0c.16-.12.31-.25.47-.38,0,0,.01-.01.02-.02l.04-.03s.03-.03.05-.04l.03-.02s0,0,.01-.01c0,0,0,0,0,0,.15-.12.29-.24.43-.36,0,0,0,0,0,0h0s.03-.03.05-.04c.07-.06.15-.12.21-.18,0,0,.01-.01.02-.02.08-.07.16-.14.23-.2.16-.14.32-.28.48-.43.13-.12.26-.24.38-.36l.06-.05c.15-.15.3-.29.45-.44l.36-.36s.04-.04.05-.06l.13-.14c.1-.1.19-.2.26-.27,0,0,0,0,0,0,0,0,.01-.01.02-.02.03-.04.07-.07.1-.11.1-.1.2-.21.29-.32.03-.03.06-.07.09-.1l.3-.35c.09-.1.17-.2.25-.3l.1-.12h0s.02-.02.03-.04c.06-.07.11-.14.17-.21.17-.21.33-.42.49-.64.01-.02.03-.04.04-.06.2-.27.39-.54.56-.8,0,0,0,0,0,0,0,0,0,0,0,0,.12-.17.23-.35.33-.51,0,0,0,0,0,0,0,0,.01-.02.02-.03.09-.15.18-.29.27-.44.02-.04.05-.07.07-.11l.02-.03c.04-.06.07-.12.11-.18.02-.04.04-.08.07-.12.03-.05.05-.09.08-.14.02-.03.04-.07.05-.1.04-.08.09-.16.13-.24l.03-.06s.01-.03.02-.04c.02-.04.04-.07.05-.1.14-.29.28-.57.4-.85.13-.29.25-.59.36-.89.05-.12.09-.24.13-.37.03-.09.06-.18.09-.26l.02-.07s0,0,0,0v-.02c.05-.15.1-.3.14-.44.02-.05.03-.1.04-.15.09-.3.16-.6.23-.91.04-.17.07-.35.1-.51l.04-.24s0-.04,0-.06l.04-.28c.03-.17.05-.35.07-.55.02-.15.03-.3.04-.44.01-.12.02-.23.02-.35,0-.13.01-.26.02-.39,0-.16,0-.32,0-.47v-26.59c0-5.43-2.98-10.75-8.6-15.37ZM173,122.73c.22-.07.43-.14.66-.21,1.74-.58,3.43-1.19,5.05-1.83v20.8s-.04.02-.07.03c-.03.01-.06.02-.08.03-.18.08-.36.15-.58.24-.39.16-.79.33-1.19.48h-.04s-.09.05-.14.07c0,0,0,0-.01,0,0,0-.02,0-.03.01-.31.12-.63.24-.95.37l-.1.04c-.24.09-.47.18-.71.26l-.35.13c-.28.1-.56.2-.88.31-.15.06-.31.11-.46.16l-.12.04v-20.94ZM161.94,125.72c.18-.04.36-.08.53-.12.82-.18,1.63-.37,2.43-.57.25-.06.5-.13.74-.19.56-.14,1.11-.28,1.66-.43.11-.03.22-.06.33-.08v21.03l-.13.04c-.14.04-.27.08-.42.12l-.31.08s-.05.01-.07.02c-.23.07-.46.13-.71.19-.24.06-.48.13-.74.2-.3.08-.6.16-.9.23l-.07.02c-.45.11-.89.22-1.35.33-.33.08-.66.15-1,.23v-21.09ZM150.88,144.84v-17.14c1.93-.27,3.84-.58,5.7-.92v21.14l-.12.02c-.24.04-.48.09-.75.14-.35.07-.7.13-1.06.19,0,0-.05,0-.05,0,0,0-.02,0-.03,0-.26.05-.52.09-.79.14l-1.83.29c-.27.04-.55.08-.85.13-.07.01-.15.02-.22.03v-4.04ZM139.81,147.93v-19.03c.05,0,.1,0,.16-.01.5-.04,1.01-.08,1.51-.13.45-.04.89-.07,1.33-.11.52-.05,1.03-.1,1.54-.15.39-.04.78-.07,1.16-.12v21.19c-1.3.15-2.6.28-3.9.39-.26.03-.52.05-.78.07-.04,0-.07,0-.11,0-.31.03-.62.05-.92.07v-2.18ZM128.75,129.39c1.91-.03,3.82-.08,5.7-.17v21.22c-.5.02-1.01.05-1.51.07l-1.26.04c-.62.02-1.24.04-1.87.05-.35,0-.71.01-1.06.02v-21.23ZM117.68,129.22c1.89.08,3.8.14,5.7.17v21.23c-.36,0-.72-.01-1.08-.02-.62-.01-1.24-.03-1.84-.05l-1.27-.04c-.51-.02-1.01-.05-1.52-.07v-21.22ZM106.61,128.37c1.89.2,3.79.38,5.71.52v21.21c-.31-.02-.62-.05-.92-.07-.03,0-.06,0-.1,0-.26-.02-.53-.04-.82-.07-1.27-.11-2.57-.24-3.87-.39v-21.19ZM95.55,126.79c1.87.34,3.77.64,5.7.92v20.98c-.51,0-1.01-.02-1.51-.03l-1.4-.23h0c-.27-.04-.54-.09-.81-.14,0,0-.05,0-.05,0-.36-.06-.71-.12-1.1-.19-.24-.04-.48-.09-.72-.13l-.12-.02v-21.14ZM84.49,124.32c1.85.5,3.76.97,5.7,1.39v21.1c-.34-.08-.67-.15-1.01-.23-.45-.11-.9-.22-1.35-.33l-.1-.03c-.29-.07-.58-.15-.88-.23-.25-.06-.49-.13-.74-.2-.23-.06-.47-.12-.7-.19-.02,0-.05-.01-.07-.02l-.31-.08c-.14-.04-.28-.08-.4-.11l-.15-.04v-21.04ZM73.42,120.69c1.81.72,3.72,1.4,5.7,2.04v20.94l-.11-.04c-.16-.05-.32-.11-.51-.18-.28-.1-.57-.2-.85-.3l-.34-.12c-.24-.09-.48-.18-.71-.27-.42-.16-.84-.32-1.26-.49-.4-.16-.8-.32-1.23-.5-.17-.07-.34-.14-.51-.21l-.06-.03s-.05-.02-.08-.03c-.01,0-.03-.01-.04-.02v-20.8ZM62.35,115.19c.82.52,1.67,1.02,2.55,1.51,1,.56,2.06,1.11,3.15,1.64v20.56c-.22-.12-.44-.24-.66-.36-.22-.13-.45-.25-.69-.39l-.47-.27s-.07-.04-.09-.05c-.04-.02-.07-.05-.11-.07-.08-.05-.16-.1-.24-.14l-.3-.18s-.03-.02-.04-.03c-.04-.02-.07-.05-.11-.07-.16-.1-.32-.2-.48-.3-.04-.03-.09-.06-.13-.08-.15-.1-.3-.2-.46-.3l-.14-.09c-.13-.09-.26-.17-.38-.26l-.11-.08c-.42-.29-.83-.59-1.18-.85-.04-.03-.08-.06-.11-.09v-20.08ZM60.72,140.71c.15.11.31.21.45.3l.05.03s.05.03.05.04c0,0,0,0,0,0,0,0,0,0,.01,0l.12.08c.15.1.3.2.45.29.26.17.53.34.78.49.07.05.15.09.23.14l.15.09c.09.06.18.11.27.17.08.05.17.11.26.16l.07.04c.14.08.27.16.38.23.25.15.51.3.78.45.42.23.84.46,1.25.68.19.1.38.2.6.32.14.07.27.14.41.21-1-.26-1.98-.52-2.94-.8-1.33-.39-2.62-.79-3.87-1.22-1.5-.51-2.98-1.05-4.41-1.63-2.29-.93-4.38-1.92-6.2-2.95-2.45-1.37-4.18-2.64-5.39-3.73-2.02-1.81-2.58-3.09-2.58-3.42,0-.53,1.4-3.42,7.73-7.02,0,.03,0,.06,0,.09,0,.13,0,.26.02.39,0,.12.01.23.03.35,0,.13.02.26.04.39,0,.03,0,.06.01.1.02.17.04.34.06.5l.04.28s0,.04,0,.06l.04.23c.03.17.07.35.1.5.07.33.15.64.24.94.01.05.03.1.04.14,0,0,0,.01,0,.02.04.14.08.28.14.45l.02.05c.03.09.06.18.09.27.04.12.09.25.13.37.11.3.23.59.35.87,0,0,0,0,0,0,0,0,0,0,0,0,.12.28.26.57.4.85.02.04.04.08.06.11.01.02.02.04.04.07l.02.04c.03.07.07.13.11.2.03.05.05.1.08.14.03.05.05.1.08.14.02.04.04.08.07.12.03.06.07.12.11.18l.02.03c.11.19.22.37.32.53,0,0,0,.01.01.02.11.18.23.36.34.53,0,0,0,0,0,.01,0,0,0,0,0,.01.18.27.37.53.56.8,0,.01.02.03.03.04.15.2.31.4.46.6.07.09.14.18.21.27,0,.01.02.02.03.04,0,0,0,0,0,0l.1.12c.09.1.17.21.25.3l.02.02s0,0,0,0l.28.33s.06.07.09.1c.13.15.27.3.39.42.09.1.19.2.28.3l.13.14s.04.04.05.06l.38.38c.15.15.31.31.44.43l.06.05c.13.12.25.24.38.36.16.14.31.28.45.41.15.14.3.27.45.39.01.01.03.02.04.04.01.01.03.02.04.04h0c.15.13.3.26.44.37l.03.03.04.03c.19.16.38.31.55.44.22.17.44.34.67.51.39.29.85.63,1.36.98l.11.08ZM54.73,109c.07.07.13.14.19.21.03.03.06.06.08.09.61.64,1.28,1.28,1.99,1.91v18.66c-.05-.07-.1-.14-.16-.22,0,0,0,0,0,0-.07-.1-.13-.2-.19-.29-.02-.04-.05-.08-.07-.12-.07-.11-.13-.21-.2-.32,0-.01-.02-.03-.02-.04l-.07-.11c-.03-.05-.04-.08-.07-.13l-.04-.07s-.02-.03-.03-.05c-.05-.09-.09-.17-.14-.26l-.05-.1s-.01-.03-.02-.04c-.09-.19-.18-.38-.27-.58-.09-.22-.18-.43-.27-.65,0-.02-.01-.04-.02-.06-.01-.03-.02-.06-.03-.09-.01-.04-.03-.08-.04-.12-.02-.05-.04-.1-.05-.16v-.04c-.04-.09-.07-.18-.1-.28-.01-.05-.03-.1-.04-.14,0,0,0-.01,0-.01-.06-.19-.1-.39-.15-.61-.02-.08-.04-.16-.05-.26l-.07-.45s0-.03,0-.05c-.01-.08-.02-.16-.03-.26,0,0,0,0,0-.01,0-.03,0-.06-.01-.09,0-.02,0-.04,0-.06,0-.07,0-.14-.02-.22,0-.03,0-.06,0-.09,0-.02,0-.04,0-.06,0-.08,0-.16-.01-.24,0-.1,0-.21,0-.31v-14.27ZM34.57,163.79c-1.48-2.16-2.26-4.35-2.26-6.53v-14.29c.69.76,1.44,1.5,2.26,2.23v18.58ZM45.63,172.89c-2.15-1.17-4.05-2.4-5.71-3.67v-20.04c1.74,1.1,3.64,2.16,5.71,3.16v20.55ZM56.7,177.67l-.07-.02c-.17-.06-.35-.12-.55-.19-.29-.1-.57-.2-.86-.31l-.33-.12c-.24-.09-.48-.18-.71-.27-.42-.16-.84-.32-1.26-.49-.4-.16-.8-.32-1.22-.5-.19-.08-.38-.16-.59-.25-.03-.01-.07-.03-.1-.04v-20.8c1.81.72,3.72,1.4,5.7,2.04v20.94ZM67.76,180.8c-.34-.08-.67-.15-1.01-.23-.45-.11-.9-.22-1.35-.33l-.15-.04c-.27-.07-.55-.14-.83-.21-.25-.06-.49-.13-.74-.19-.23-.06-.47-.12-.72-.2l-.9-.25v-21.03c1.85.5,3.76.97,5.7,1.39v21.1ZM78.82,182.87c-.08-.01-.17-.02-.26-.04-.27-.04-.54-.08-.82-.12l-.69-.11c-.67-.11-1.33-.22-2-.33-.35-.06-.71-.12-1.1-.2-.28-.05-.55-.1-.83-.15v-21.14c1.87.34,3.77.64,5.7.92v21.18ZM89.89,184.1h-.03c-.3-.02-.6-.05-.89-.07-.03,0-.07,0-.1,0-.26-.02-.53-.04-.81-.07-1.27-.11-2.57-.25-3.87-.39v-21.19c1.89.2,3.79.38,5.71.52v21.21ZM100.96,184.61c-.36,0-.72,0-1.08-.02-.19,0-.37,0-.56-.01-.36,0-.71-.02-1.06-.03-.07,0-.14,0-.22,0l-1.27-.04c-.5-.02-1.01-.04-1.52-.07v-21.22c1.89.09,3.8.14,5.7.17v21.23ZM112.02,184.44c-.51.02-1.01.05-1.51.07l-1.26.04c-.61.02-1.22.04-1.85.05-.15,0-.3,0-.45,0-.21,0-.43,0-.64,0v-21.23c1.91-.03,3.81-.08,5.7-.17v21.22ZM123.09,183.56c-1.3.15-2.6.28-3.89.39-.26.03-.52.05-.78.07-.04,0-.08,0-.11,0-.3.03-.59.05-.89.07h-.03s0-21.21,0-21.21c1.91-.14,3.82-.32,5.71-.52v21.19ZM114.54,157.71c-7.16.44-14.64.44-21.81,0-3.67-.22-7.33-.57-10.89-1.02-3.74-.47-7.39-1.07-10.86-1.78,0,0-.01,0-.02,0-3.77-.77-7.4-1.68-10.79-2.71,0,0-.01,0-.02,0,0,0,0,0,0,0-3.92-1.19-7.53-2.54-10.73-4-4.2-1.92-7.73-4.04-10.48-6.3-4.41-3.62-6.65-7.4-6.65-11.23s2.24-7.6,6.65-11.23c2.73-2.25,6.24-4.36,10.42-6.27v4.42c-.81.4-1.61.82-2.37,1.25-6.81,3.81-10.71,8.13-10.71,11.83s3.91,8.02,10.71,11.83c2.02,1.14,4.31,2.23,6.81,3.25,1.53.62,3.11,1.21,4.71,1.74,3.53,1.2,7.34,2.25,11.35,3.13,3.58.79,7.38,1.46,11.29,1.98,3.64.49,7.42.86,11.25,1.1,2.27.15,4.58.25,6.86.3.04,0,.08.01.13.02.13.02.25.04.37.06.15.02.31.05.45.07.25.04.5.07.72.1.19.03.39.06.54.08.67.1,1.35.19,2.07.28h.07c.07.02.14.03.2.03.34.04.69.09,1.04.13l.13.02c1.69.2,3.39.38,5.02.52.32.03.64.06.97.08.01,0,.03,0,.05,0,.33.03.65.06.98.08.3.03.59.04.89.06.13,0,.26.02.39.03h.06s.06,0,.08.01c.03,0,.07,0,.1,0,.45.03.89.06,1.33.09h.09c.32.03.63.05.95.06h.22c.12.02.23.02.35.03l1.14.06c.47.02.94.04,1.42.06l1.29.04c.64.02,1.28.04,1.9.05.64.02,1.28.02,1.93.03.33,0,.66,0,.95,0,.33,0,.66,0,.99,0s.66,0,.96,0c.33,0,.66,0,.98,0,.65,0,1.29-.01,1.92-.03.24,0,.48-.01.72-.02-1.71.28-3.45.53-5.21.75-3.56.45-7.22.79-10.89,1.02ZM134.15,181.92c-.28.05-.56.11-.87.16-.35.07-.7.13-1.08.19-.66.12-1.31.22-1.96.33l-.72.11c-.27.04-.54.08-.85.13-.07.01-.15.02-.22.03v-21.18c1.93-.27,3.84-.58,5.7-.92v21.14ZM145.22,179.34l-.93.26c-.23.07-.46.13-.71.19-.24.06-.48.13-.75.2-.28.07-.56.15-.84.22l-.12.03c-.45.11-.89.22-1.36.33-.33.08-.66.15-.99.23v-21.1c1.95-.43,3.85-.9,5.7-1.39v21.03ZM156.28,175.48s-.08.03-.13.05c-.19.08-.38.16-.6.25-.39.16-.79.33-1.2.49-.41.16-.83.32-1.26.49-.23.09-.47.18-.7.26l-.34.12c-.28.1-.57.21-.89.32-.16.06-.33.12-.5.17l-.09.03v-20.94c1.98-.64,3.89-1.33,5.7-2.04v20.8ZM161.64,172.89v-20.52c.31-.07.62-.13.92-.2.54-.12,1.08-.25,1.61-.37.49-.11.97-.23,1.44-.35l.06-.02c.32-.08.65-.16.95-.25.25-.06.49-.13.72-.19v18.22c-1.65,1.27-3.56,2.5-5.71,3.67ZM172.71,163.79v-14.37c.07-.02.13-.04.2-.06.31-.1.63-.2.9-.3.3-.1.6-.2.9-.3l.17-.06s.07-.02.1-.04v8.59c0,2.17-.78,4.37-2.26,6.53ZM189.78,135.27s-.08.06-.12.09c-.34.26-.75.56-1.17.85l-.12.08c-.12.09-.25.17-.4.27l-.21.14c-.12.08-.24.16-.36.24-.01,0-.02.01-.03.02-.23.15-.47.3-.7.45-.01,0-.03.02-.04.03,0,0-.04.02-.04.03l-.25.16c-.08.05-.16.1-.24.14-.04.02-.11.07-.15.09-.02.01-.07.04-.09.05-.14.08-.29.17-.46.27-.22.13-.44.25-.65.37-.22.12-.44.24-.67.37v-20.57c2.06-1,3.96-2.06,5.71-3.16v20.09ZM197.4,123.27c0,.1,0,.21,0,.3,0,.08,0,.16,0,.23,0,.02,0,.05,0,.07,0,.03,0,.05,0,.08,0,.08-.01.15-.02.22,0,.02,0,.04,0,.06,0,.03,0,.06-.01.09,0,.01,0,.02,0,.03,0,.08-.02.16-.03.24,0,.02,0,.03,0,.05l-.08.46c-.01.08-.03.16-.06.27-.04.19-.09.39-.14.56,0,0,0,.02,0,.03-.02.05-.03.1-.04.14-.02.09-.05.17-.08.25l-.03.08s-.03.09-.05.14c-.01.03-.02.07-.04.1-.01.03-.02.07-.04.1,0,.02-.02.04-.02.06-.08.21-.17.42-.26.64,0,0,0,.02-.01.03-.04.1-.09.2-.14.3-.04.09-.08.18-.12.26,0,0,0,.02-.01.03l-.06.11c-.05.09-.09.18-.14.26,0,.02-.02.03-.03.05l-.02.05c-.03.05-.05.08-.08.13l-.08.13s-.02.03-.02.04c-.06.11-.13.22-.21.35-.08.13-.16.25-.23.37,0,.01-.01.02-.02.03-.05.07-.1.15-.16.22v-18.66c.82-.73,1.57-1.47,2.26-2.23v14.29Z"/>
    </g>
    <path class="cls-2" d="M163.13,36.12c-2.92-2.4-6.61-4.61-10.95-6.59-3.29-1.5-6.97-2.87-10.95-4.08-3.43-1.04-7.09-1.96-10.94-2.75-3.5-.71-7.15-1.32-10.95-1.8-3.54-.45-7.19-.79-10.95-1.02-3.57-.22-7.23-.33-10.95-.33s-7.38.11-10.95.33c-3.75.22-7.41.57-10.95,1.02-3.79.48-7.45,1.08-10.95,1.8-3.86.79-7.51,1.71-10.94,2.75-3.98,1.21-7.65,2.58-10.95,4.08-4.33,1.98-8.03,4.19-10.95,6.59-4.83,3.97-7.54,8.43-7.54,13.15s2.71,9.19,7.54,13.16c2.92,2.4,6.61,4.61,10.95,6.59,3.29,1.5,6.97,2.87,10.95,4.08,3.43,1.04,7.09,1.96,10.94,2.75,1.47.3,2.96.58,4.49.84,2.11.36,4.26.68,6.46.96,3.54.45,7.19.79,10.95,1.02,1.25.08,2.52.14,3.79.19h0c2.35.09,4.74.14,7.15.14,3.72,0,7.38-.11,10.95-.33,3.75-.23,7.41-.57,10.95-1.02,3.79-.48,7.45-1.08,10.95-1.8,1.36-.28,2.69-.57,4-.88,2.4-.57,4.72-1.19,6.94-1.86,3.98-1.21,7.65-2.58,10.95-4.08.84-.38,1.66-.78,2.45-1.18,3.29-1.67,6.15-3.48,8.5-5.42,4.83-3.97,7.54-8.43,7.54-13.16s-2.71-9.19-7.54-13.15ZM152.19,58.66c-1.85,1.04-3.99,2.07-6.43,3.06-1.45.59-2.95,1.15-4.51,1.67-2.48.84-5.08,1.6-7.8,2.28-1.03.26-2.08.51-3.14.74-3.49.77-7.15,1.41-10.95,1.92-3.54.48-7.2.84-10.95,1.07-3.58.23-7.24.35-10.95.35-2.71,0-5.39-.06-8.03-.18-.98-.05-1.95-.1-2.91-.16-3.74-.24-7.4-.59-10.95-1.07-3.79-.51-7.45-1.15-10.95-1.92-3.87-.85-7.53-1.86-10.94-3.02-1.56-.53-3.06-1.08-4.51-1.67-2.44-.99-4.59-2.02-6.43-3.06-6.31-3.53-9.24-7.12-9.24-9.39s2.93-5.86,9.24-9.39c1.85-1.04,3.99-2.07,6.43-3.06,1.45-.59,2.95-1.15,4.51-1.67,3.41-1.16,7.08-2.16,10.94-3.01,3.49-.78,7.15-1.42,10.95-1.92,3.54-.48,7.2-.84,10.95-1.07,3.58-.23,7.24-.34,10.95-.34s7.37.12,10.95.34c3.74.24,7.4.59,10.95,1.07,3.79.51,7.45,1.15,10.95,1.92,3.87.85,7.53,1.86,10.94,3.01,1.56.53,3.06,1.08,4.51,1.67,2.44.99,4.59,2.02,6.43,3.06,6.31,3.53,9.24,7.13,9.24,9.39s-2.93,5.86-9.24,9.39Z"/>
    <path class="cls-1" d="M96.93,109.51c-.51,0-1.03,0-1.54,0h-.74c-.14,0-.28,0-.42-.01h-.68c-.57-.02-1.13-.03-1.68-.05-.55-.01-1.11-.03-1.66-.05h-.1c-.21-.01-.41-.02-.62-.03-.08,0-.17,0-.25-.01-.42-.01-.83-.03-1.25-.06-.76-.04-1.53-.08-2.3-.13l-1.41-.09c-.5-.03-.98-.07-1.46-.11h-.14c-2.09-.18-4.22-.38-6.32-.62l-.88-.1c-.36-.04-.7-.09-1.04-.13-.57-.07-1.14-.15-1.71-.23l-.85-.12s-.04,0-.07-.01h-.03c-.34-.05-.69-.1-1.03-.16-.06,0-.12-.02-.18-.03-.98-.15-1.95-.31-2.9-.47l-.13-.02c-.06,0-.12-.02-.18-.03-.15-.03-.31-.05-.46-.08h-.05c-.18-.04-.36-.07-.55-.11-.13-.02-.25-.04-.37-.07l-1.19-.22c-.38-.07-.76-.15-1.13-.22l-.1-.02s-.04,0-.06-.01c-.07-.01-.13-.03-.2-.04-.02,0-.03,0-.05-.01-1.53-.31-3-.64-4.38-.97-.34-.08-.66-.16-.98-.24l-.86-.22s-.09-.02-.13-.03h0c-.28-.08-.56-.15-.84-.22,0,0-.05-.01-.05-.01-.62-.17-1.23-.33-1.84-.5h-.05c-.71-.22-1.39-.41-2.06-.61-.04-.01-.1-.03-.14-.05l-.59-.18c-.17-.05-.34-.1-.5-.16l-.32-.1c-.1-.03-.21-.06-.31-.1l-.95-.31c-.05-.02-.14-.05-.23-.08l-.27-.09c-.23-.08-.44-.15-.65-.22l-.41-.14c-.24-.08-.48-.17-.72-.26-.11-.04-.23-.08-.34-.12l-.32-.12c-.17-.06-.34-.12-.51-.19l-.18-.07c-.46-.18-.9-.35-1.34-.52-.43-.17-.87-.35-1.3-.53-.19-.08-.41-.17-.64-.27-.24-.1-.5-.21-.75-.32-.09-.04-.2-.09-.3-.13l-.18-.08s-.08-.04-.12-.05l-.44-.2s0,0,0,0c-.02-.01-.05-.02-.07-.03-.4-.18-.79-.37-1.18-.55-.1-.04-.19-.09-.29-.14l-.12-.06s-.04-.02-.05-.03l-.06-.03c-.07-.03-.13-.06-.2-.1l-.25-.12c-.08-.04-.17-.08-.27-.14-.19-.09-.37-.19-.55-.28l-.57-.3c-.21-.11-.39-.21-.58-.31-.13-.07-.29-.15-.44-.24l-.05-.03c-.08-.04-.16-.09-.24-.13l-.3-.17c-.14-.07-.27-.15-.4-.23l-.07-.04c-.05-.03-.1-.06-.15-.09-.17-.1-.33-.19-.49-.29-.19-.11-.37-.22-.55-.33-.12-.07-.24-.15-.36-.23l-.11-.07c-.14-.09-.29-.19-.44-.28-.17-.11-.38-.25-.59-.38l-.06-.04c-.18-.12-.32-.22-.46-.32l-.43-.3c-.32-.22-.62-.45-.93-.67l-.1-.07c-.11-.08-.22-.16-.33-.25-.11-.08-.25-.19-.38-.29l-.1-.08c-.09-.07-.2-.16-.3-.24l-.11-.09s-.06-.05-.09-.08c-.02-.01-.04-.03-.05-.05-.05-.04-.09-.07-.14-.11-.1-.08-.2-.17-.3-.25-.17-.14-.33-.29-.5-.43-.08-.07-.18-.16-.29-.26-.1-.09-.2-.18-.3-.27-.1-.09-.2-.19-.3-.28-.16-.15-.31-.3-.46-.45l-.36-.36s-.03-.03-.04-.04c-.27-.28-.54-.57-.8-.86-.03-.03-.06-.06-.09-.09l-.14-.17s-.04-.04-.06-.07c-.06-.06-.1-.11-.14-.16-.08-.1-.17-.2-.25-.3l-.1-.11c-.11-.14-.2-.25-.28-.35l-.09-.12c-.08-.11-.16-.21-.23-.31-.03-.04-.06-.08-.09-.12-.01-.02-.03-.03-.04-.05-.19-.26-.38-.53-.56-.8-.12-.18-.22-.34-.33-.51-.12-.19-.24-.38-.35-.58-.1-.16-.19-.32-.28-.49-.06-.11-.12-.23-.18-.35l-.04-.09s-.03-.05-.04-.08l-.02-.04c-.14-.29-.28-.57-.4-.87-.12-.28-.24-.57-.35-.87-.05-.12-.09-.25-.13-.37-.03-.1-.07-.2-.1-.29,0-.02-.02-.06-.03-.1-.04-.13-.08-.26-.12-.39-.01-.05-.03-.09-.04-.14-.09-.3-.16-.61-.24-.94-.03-.15-.07-.33-.1-.5l-.04-.21s0-.05-.01-.07l-.05-.31c-.02-.14-.04-.3-.06-.47,0-.04,0-.08-.01-.12-.02-.13-.03-.26-.03-.39-.01-.12-.02-.23-.02-.35,0-.13-.01-.26-.02-.39,0-.19,0-.33,0-.47,0-1.48,1.2-2.68,2.68-2.68s2.68,1.2,2.68,2.68h0c0,.1,0,.19,0,.29,0,.1,0,.18.01.25,0,.03,0,.05,0,.08,0,.03,0,.05,0,.08,0,.07.01.14.02.22,0,.02,0,.04,0,.07,0,.02,0,.03,0,.05,0,.02,0,.04,0,.06,0,.09.02.18.03.26l.08.47c.02.11.04.19.05.27.05.22.1.41.15.61,0,0,0,0,0,0,.02.05.03.1.05.15.02.07.04.14.06.21h0s.01.04.02.07c.03.08.04.13.06.18.01.04.03.08.04.12.01.03.02.06.03.09,0,.02.01.04.02.06.08.22.17.43.26.65.09.21.18.39.27.57,0,.01.02.03.02.04l.05.1c.04.09.09.17.14.26,0,.02.02.03.03.05.05.09.1.18.16.28.02.03.03.05.05.08.06.11.13.22.2.33,0,0,.03.04.03.05.08.13.16.25.24.38.12.18.26.38.4.57.01.02.03.04.04.05.03.04.06.08.09.11.06.08.12.16.18.24l.1.13c.06.08.12.15.18.23l.09.1c.06.08.13.15.19.23.02.02.03.04.05.05.06.07.1.12.14.16l.08.09s.04.04.05.06c.22.25.45.49.68.73l.34.34c.12.12.23.23.35.34.08.08.14.14.21.19.03.03.06.05.09.08.07.07.15.13.22.2.02.02.05.04.07.06.06.06.12.11.18.16.14.13.26.23.38.33.02.02.04.03.06.05.06.05.12.1.18.15.03.02.05.04.08.07l.11.09s.08.07.12.1l.45.36c.09.07.18.14.27.21l.4.3c.26.19.53.39.8.59l.46.32c.1.08.2.14.3.2l.07.05s.03.02.04.03c.15.1.31.21.47.31.16.1.28.18.4.25l.13.08c.1.06.19.12.29.18.03.02.07.04.1.06.11.07.23.14.34.21.03.02.07.04.1.06.14.09.28.17.42.25.02.01.06.03.08.05l.12.07c.11.06.19.11.27.16.02.01.04.02.06.03l.35.2s.07.04.1.06l.09.05c.13.07.26.14.39.22.19.11.35.19.51.27l.56.29c.16.08.33.17.49.25.04.02.08.04.12.06l.36.18s.05.03.08.04l.32.15c.05.03.11.05.16.08.02,0,.04.02.06.03.36.17.72.34,1.09.51.02.01.05.02.07.03,0,0,0,0,0,0l.54.24s.06.03.09.04l.36.16c.24.11.47.21.7.3.21.09.4.17.59.25.43.18.83.34,1.23.5.42.17.84.33,1.26.49l.18.07c.13.05.27.1.4.15.01,0,.03.01.04.02l.33.12c.08.03.16.06.25.09.04.01.08.03.12.04.19.07.38.14.57.21l.43.15c.19.06.38.13.57.19l.32.11s.08.03.11.04l1.01.33c.06.02.13.04.19.06.01,0,.03,0,.04.01l1.41.44s.05.01.07.02c.67.2,1.31.39,1.95.57.02,0,.05.01.07.02.6.17,1.2.33,1.81.49.28.07.55.14.82.22.02,0,.04,0,.06.01l.93.23c.32.08.61.15.89.22,1.33.32,2.74.63,4.21.93.11.02.23.04.34.07h.07c.36.09.72.16,1.08.23l1.22.23c.12.02.2.04.27.05.02,0,.05,0,.07.01.13.03.26.05.39.07.02,0,.04,0,.07.01l.09.02c.16.03.32.06.48.08.05,0,.1.02.15.03,0,0,0,0,.01,0,.01,0,.07.01.08.01.94.16,1.88.31,2.84.46,0,0,.01,0,.02,0,.04,0,.08.01.11.01.33.05.66.1.99.15.03,0,.06,0,.09.01.02,0,.04,0,.07.01l.79.11c.53.07,1.09.15,1.65.22.33.04.65.08.97.12l.85.1c2.04.23,4.11.43,6.16.59h.14c.44.05.9.08,1.36.11l1.4.09c.74.05,1.48.09,2.23.12.41.02.8.04,1.2.05.02,0,.04,0,.06,0h.06c.28.01.52.02.76.03h.07c.51.02,1.05.04,1.6.05.55.01,1.09.03,1.64.04h.7c.13.01.22.01.31.01.02,0,.03,0,.05,0h.72c1,.01,2.01.01,3.01,0h.72s.08,0,.11,0c.07,0,.14,0,.21,0h.75c.54-.02,1.09-.03,1.63-.05.54-.01,1.08-.03,1.62-.05h.05c.24-.01.49-.02.73-.03.02,0,.05,0,.07,0,.02,0,.06,0,.08,0,.4-.01.79-.03,1.19-.05.76-.04,1.5-.08,2.24-.12l1.43-.09c.43-.03.9-.06,1.36-.1h.1c2.07-.17,4.14-.37,6.18-.6l.88-.1c.31-.04.63-.08.95-.12.57-.07,1.13-.15,1.68-.22l.77-.11s.06,0,.09-.01c.03,0,.04,0,.07-.01.33-.05.66-.09.99-.15.04,0,.08-.01.11-.02,0,0,0,0,.01,0,.96-.14,1.91-.3,2.84-.46h.08c.05-.02.11-.03.16-.04.35-.06.7-.12,1.04-.19.12-.02.2-.03.28-.05.01,0,.03,0,.04,0l1.22-.23c.37-.07.73-.14,1.09-.21h.07c.11-.04.23-.06.34-.08,1.47-.3,2.88-.61,4.19-.93.29-.07.58-.14.87-.21l.97-.24s.04,0,.06-.01c.28-.08.56-.15.85-.22.58-.16,1.19-.32,1.78-.49.03,0,.05-.01.08-.02l.2-.06c.14-.04.27-.08.41-.12l.38-.11c.33-.1.67-.2,1-.3.49-.15.96-.29,1.42-.44.02,0,.04-.01.06-.02.07-.02.13-.04.19-.06l1.01-.33s.07-.03.11-.04l.34-.11c.16-.05.36-.12.55-.19l.43-.15c.19-.07.38-.13.57-.21.04-.01.08-.03.12-.04.09-.03.17-.06.26-.09l.32-.12s.03-.01.04-.02c.14-.05.27-.1.41-.15l.19-.07c.4-.15.82-.32,1.24-.48.41-.16.81-.33,1.2-.49.22-.09.41-.17.6-.25.26-.11.49-.21.71-.31l.36-.16s.06-.03.09-.04l.53-.24s.06-.03.1-.04c.36-.17.72-.34,1.07-.5.02-.01.05-.02.07-.03.05-.02.11-.05.16-.08l.31-.15s.07-.03.09-.04l.28-.14s.15-.08.2-.1c.17-.08.33-.17.5-.25l.08-.04c.15-.08.3-.15.44-.23.17-.09.34-.18.51-.27.17-.09.3-.16.42-.23l.1-.05s.07-.04.11-.06l.35-.2s.04-.02.05-.03c.08-.04.16-.09.24-.14,0,0,.04-.02.04-.03l.12-.07s.04-.02.06-.03c.17-.1.31-.18.44-.26.03-.02.07-.04.1-.06.11-.06.23-.13.34-.2.04-.02.07-.05.11-.07.1-.06.2-.12.29-.18l.12-.08c.12-.07.23-.15.34-.22.01,0,.05-.03.06-.04.16-.1.32-.21.48-.31l.11-.08c.1-.07.19-.13.28-.19l.47-.33c.28-.2.55-.4.82-.6l.05-.04c.1-.08.2-.15.3-.23.12-.09.21-.16.29-.23l.12-.09c.12-.09.22-.18.32-.26l.02-.02s.07-.06.11-.1l.12-.09s.05-.04.08-.07c.06-.05.12-.1.18-.15.02-.01.03-.03.05-.04.12-.1.24-.21.36-.31,0,0,.04-.03.04-.04.05-.05.1-.09.16-.14.02-.02.04-.04.07-.06.09-.08.16-.14.22-.2.03-.03.05-.05.08-.08.06-.06.12-.12.19-.17.15-.14.26-.25.37-.36l.34-.34c.23-.24.46-.49.68-.73.02-.02.04-.04.06-.06l.07-.08c.04-.05.08-.1.13-.15.01-.01.05-.05.06-.07.06-.08.13-.15.19-.23l.12-.14s.09-.12.15-.19l.12-.15c.04-.06.1-.13.16-.21.02-.03.05-.07.07-.1.01-.02.03-.04.04-.06.15-.2.29-.4.42-.61.08-.12.16-.25.25-.39.08-.13.15-.24.21-.35.02-.03.03-.06.05-.09.05-.09.11-.18.15-.27,0-.02.02-.03.02-.05.05-.08.09-.17.14-.25l.06-.12s0-.01.01-.02v-.03c.08-.15.16-.29.22-.44.02-.04.03-.08.05-.11,0,0,0,0,0,0,.09-.22.18-.43.26-.65,0-.02.01-.04.02-.05.01-.03.02-.06.03-.09.01-.04.03-.08.04-.12.02-.05.03-.09.05-.14v-.04s.02-.03.03-.05c.03-.1.05-.16.07-.23.02-.06.03-.12.05-.17,0,0,0-.01,0-.02.05-.17.1-.37.14-.56.03-.11.04-.19.06-.27l.08-.46s0-.03,0-.05c.01-.08.02-.16.03-.24,0-.01,0-.02,0-.04,0-.03,0-.06.01-.09,0-.02,0-.05,0-.07,0-.06,0-.15.02-.21,0-.03,0-.05,0-.08,0-.03,0-.05,0-.08,0-.07,0-.14,0-.21,0-.12,0-.22,0-.33,0-1.48,1.2-2.68,2.68-2.68s2.68,1.2,2.68,2.68c0,.16,0,.31,0,.47,0,0,0,.05,0,.05,0,.11,0,.23-.02.34,0,.12-.01.24-.03.35,0,.14-.02.29-.04.44-.02.2-.04.37-.07.55l-.04.28s0,.06-.01.08l-.04.23c-.03.16-.06.34-.1.52-.06.3-.14.61-.23.9-.01.05-.03.1-.04.14-.04.13-.08.26-.12.39,0,.02-.01.03-.01.05l-.03.1c-.03.09-.06.17-.09.26-.04.12-.09.25-.13.37-.11.3-.23.6-.36.89-.02.05-.05.11-.07.16-.09.19-.18.38-.27.58l-.04.09s-.02.04-.03.06c-.01.02-.03.05-.04.08l-.04.08c-.06.11-.12.23-.18.34-.09.17-.18.33-.28.49-.11.19-.22.38-.34.57-.1.15-.21.33-.32.5-.19.28-.38.55-.57.81-.02.02-.03.04-.05.06-.03.04-.05.07-.08.1-.07.1-.15.19-.22.29l-.11.15c-.08.1-.16.21-.25.31l-.12.15c-.08.1-.16.2-.25.29-.04.04-.07.09-.11.13-.02.03-.06.07-.08.1l-.15.18s-.05.06-.08.09c-.26.29-.53.58-.8.86-.01.01-.03.03-.04.04l-.36.36c-.15.15-.3.3-.45.44-.1.1-.2.19-.3.28-.1.09-.2.18-.3.27-.09.09-.19.17-.28.25-.17.15-.33.29-.5.43-.1.08-.2.17-.29.25-.04.03-.08.07-.12.1-.02.02-.04.04-.07.06-.02.02-.07.06-.09.08l-.07.06c-.12.1-.24.19-.36.29l-.09.07c-.13.1-.27.21-.41.31-.09.07-.2.16-.33.25l-.06.04c-.31.23-.62.46-.94.68l-.44.31c-.12.09-.26.18-.4.28l-.13.09c-.18.12-.39.26-.6.39-.13.09-.27.18-.42.27l-.1.06c-.12.08-.24.15-.37.23-.18.12-.36.23-.55.33-.16.1-.32.19-.48.29-.04.02-.1.06-.17.1l-.04.02c-.15.09-.28.17-.41.24l-.33.19c-.06.04-.14.08-.21.12l-.05.03c-.16.09-.31.17-.47.26-.16.09-.35.19-.55.29-.15.08-.32.17-.48.25l-.08.04c-.19.1-.37.19-.56.29-.1.05-.2.1-.3.15l-.22.11c-.07.03-.13.07-.2.1l-.06.03s-.03.02-.05.02l-.12.06c-.1.05-.19.09-.29.14-.39.18-.78.37-1.17.55-.02,0-.04.02-.06.03,0,0-.02,0-.03.01l-.43.19s-.08.04-.12.06l-.18.08c-.1.05-.21.09-.31.14-.24.11-.5.22-.76.33-.2.09-.42.18-.65.27-.4.17-.84.35-1.28.52-.42.17-.86.34-1.31.51l-.19.07c-.17.06-.34.13-.52.19l-.31.11c-.12.04-.24.09-.35.12-.24.09-.47.18-.72.26l-.4.14c-.21.07-.42.14-.63.22l-.3.1c-.09.03-.18.06-.27.09l-.91.3c-.11.03-.21.07-.31.1-.48.15-.96.3-1.44.45-.34.11-.7.21-1.06.32l-.38.11c-.15.04-.31.09-.47.13l-.23.07s-.03,0-.05.01h-.04c-.6.18-1.22.34-1.83.51-.31.08-.6.16-.89.23h0s-.09.02-.13.03l-.9.22c-.29.08-.61.15-.94.23-1.38.33-2.85.65-4.38.97-.02,0-.03,0-.05.01-.07.01-.13.03-.2.04-.02,0-.04.01-.07.01l-.1.02c-.38.08-.76.15-1.14.22l-1.2.23c-.13.03-.25.05-.38.07-.35.07-.73.13-1.13.2-.02,0-.03,0-.05,0l-.2.03c-.92.16-1.89.31-2.87.46-.06.01-.12.02-.19.03-.34.05-.69.1-1.03.15h-.04s-.04.01-.06.02l-.83.12c-.59.08-1.17.16-1.74.23-.33.04-.67.09-1.02.13l-.9.11c-2.09.24-4.23.44-6.34.61h-.1c-.5.05-.97.08-1.45.12l-1.44.09c-.76.05-1.54.09-2.31.13-.4.02-.81.04-1.23.05-.09,0-.17,0-.25.01-.21,0-.42.02-.63.02h-.07c-.58.02-1.13.04-1.69.06-.55.01-1.11.03-1.67.04h-.72c-.1.01-.24.02-.39.02h-.74c-.51.01-1.03.01-1.54.01ZM122.37,102.3s-.03,0-.05,0c.02,0,.03,0,.05,0ZM71.53,102.31s0,0,0,0c0,0,0,0,0,0ZM71.53,102.31s0,0,0,0c0,0,0,0,0,0ZM71.52,102.3h0,0ZM40.66,99.25s.02,0,.02,0c0,0-.02,0-.02,0ZM40.65,99.24s0,0,0,0c0,0,0,0,0,0ZM40.65,99.24s0,0,0,0c0,0,0,0,0,0ZM171.82,84.08s-.01.02-.02.04c0-.01.01-.02.02-.04ZM24.41,82.84h0,0ZM167.39,80.92s0,0,0,0c0,0,0,0,0,0ZM167.39,80.91s0,0,0,0c0,0,0,0,0,0ZM25.92,79.36s0,0,0,0c0,0,0,0,0,0ZM167.94,79.35s0,0,0,0c0,0,0,0,0,0ZM167.94,79.35s0,0,0,0c0,0,0,0,0,0ZM167.94,79.34s0,0,0,0c0,0,0,0,0,0ZM167.94,79.34s0,0,0,0c0,0,0,0,0,0ZM168.19,78.12h0s0,0,0,0ZM168.44,77c-.12.24-.18.48-.21.68.04-.24.11-.47.21-.68Z"/>
    <path class="cls-3" d="M96.93,109.51c-.33,0-.66,0-.99,0-.21,0-.44,0-.67,0h-.06s-.2,0-.2,0c-.13,0-.26,0-.4,0-.11,0-.26,0-.4,0h-.2c-.16,0-.32,0-.48-.01-.16,0-.33,0-.49,0-.4,0-.8-.02-1.2-.03-.21,0-.46-.01-.71-.02l-1.28-.04c-.14,0-.28-.01-.43-.02-.07,0-.14,0-.22,0-.42-.01-.83-.03-1.25-.06-.76-.04-1.53-.08-2.3-.13l-1.41-.09c-.5-.03-.98-.07-1.46-.11l-.21-.02c-.25-.02-.51-.04-.76-.06-.02,0-.03,0-.04,0-.32-.02-.64-.05-.97-.08-1.54-.13-3.06-.29-4.5-.46-.16-.02-.35-.04-.54-.06l-.35-.04c-.25-.03-.52-.06-.8-.1-.07,0-.14-.01-.2-.02h-.02s-.07-.01-.08-.01h-.08c-.52-.08-1.04-.15-1.56-.22l-.38-.05c-.14-.02-.31-.04-.47-.07-.02,0-.03,0-.05,0h-.03s0,0,0,0c-.24-.03-.48-.07-.72-.11l-.29-.04c-.06,0-.12-.02-.18-.02h-.07c-.11-.02-.22-.04-.32-.06l-.69-.11c-.64-.1-1.25-.2-1.85-.31l-.12-.02s-.06-.01-.07-.01c-.22-.03-.43-.07-.65-.12-.18-.03-.35-.06-.52-.09-.11-.02-.22-.04-.33-.06-.28-.05-.55-.1-.82-.15-.17-.03-.31-.06-.44-.09-.37-.07-.73-.14-1.1-.22l-.08-.02c-.07-.01-.13-.03-.2-.04l-.09-.02s-.03,0-.05,0c-1.45-.29-2.93-.62-4.39-.97-.16-.04-.32-.09-.47-.16-.13,0-.25-.03-.38-.05-.2-.04-.39-.09-.59-.14l-.14-.04c-.1-.02-.19-.05-.29-.08-.01,0-.02,0-.03,0-.18-.04-.36-.09-.53-.14-.14-.03-.27-.07-.41-.11-.12-.03-.25-.06-.37-.1-.5-.13-.99-.27-1.48-.41-.03,0-.05-.01-.08-.02,0,0,0,0,0,0l-.23-.07c-.16-.04-.31-.09-.47-.13-.43-.12-.88-.25-1.33-.39-.01,0-.02,0-.03,0-.01,0-.03,0-.04-.01-.02,0-.04-.01-.07-.02l-.58-.18c-.28-.09-.55-.17-.82-.26h-.01c-.1-.03-.2-.07-.3-.1l-.95-.31c-.05-.02-.13-.04-.22-.07h0c-.11-.04-.22-.07-.33-.11-.13-.04-.26-.08-.38-.13l-.08-.03c-.19-.07-.38-.13-.58-.2-.23-.08-.47-.16-.69-.25-.1-.04-.21-.07-.31-.11-.05-.02-.1-.03-.14-.05l-.05-.02c-.06-.02-.14-.05-.22-.08-.15-.05-.3-.11-.44-.16l-.18-.07c-.46-.18-.9-.35-1.34-.52-.43-.17-.87-.35-1.3-.53-.19-.08-.41-.17-.64-.27-.24-.1-.5-.21-.75-.32-.09-.04-.2-.09-.3-.13l-.18-.08s-.04-.02-.05-.02c-.12-.05-.24-.11-.36-.16l-.13-.06c-.06-.02-.11-.05-.17-.08-.37-.17-.74-.35-1.1-.52-.1-.04-.19-.09-.29-.14l-.12-.06s-.04-.02-.05-.03l-.06-.03c-.07-.03-.13-.06-.19-.1l-.25-.12c-.08-.04-.17-.08-.27-.14-.19-.09-.37-.19-.55-.28l-.57-.3c-.21-.11-.39-.21-.58-.31-.13-.07-.29-.15-.44-.24l-.05-.03c-.08-.04-.16-.09-.24-.13l-.3-.17c-.14-.07-.27-.15-.4-.23l-.07-.04c-.05-.03-.1-.06-.15-.09l-.25-.15c-.08-.04-.17-.1-.27-.16-.17-.1-.34-.2-.51-.31-.12-.07-.24-.15-.36-.23l-.11-.07c-.14-.09-.29-.19-.44-.28-.17-.11-.38-.25-.59-.38l-.06-.04c-.16-.11-.3-.2-.43-.29l-.17-.11c-.11-.07-.22-.15-.34-.24-.31-.21-.61-.44-.91-.66l-.04-.03s-.04-.03-.04-.03c-.1-.07-.21-.16-.32-.25-.13-.1-.26-.19-.38-.29l-.1-.08c-.09-.07-.2-.16-.3-.24l-.11-.09s-.06-.05-.09-.08c-.05-.04-.12-.1-.19-.16-.1-.08-.2-.16-.29-.25-.17-.14-.33-.29-.5-.43-.08-.07-.18-.16-.29-.26-.1-.09-.2-.18-.3-.27-.1-.09-.2-.19-.3-.28-.16-.15-.31-.3-.46-.45l-.36-.36s-.03-.03-.04-.04c-.27-.28-.54-.57-.8-.86-.03-.03-.06-.06-.09-.09l-.14-.17s-.04-.04-.06-.07c-.06-.06-.1-.11-.14-.16-.08-.1-.17-.2-.25-.3l-.1-.11c-.11-.14-.2-.25-.28-.35l-.09-.12c-.08-.11-.16-.21-.23-.31-.03-.04-.06-.08-.09-.12-.01-.02-.02-.03-.04-.05-.19-.26-.38-.53-.56-.8-.12-.18-.22-.34-.33-.51-.12-.19-.24-.38-.35-.58-.1-.16-.19-.32-.28-.49-.06-.11-.12-.23-.18-.35l-.04-.09s-.03-.05-.04-.08l-.02-.04c-.14-.29-.28-.57-.4-.87-.12-.28-.24-.57-.35-.87-.05-.12-.09-.24-.13-.37-.03-.1-.07-.2-.1-.29,0-.02-.02-.06-.03-.1-.04-.13-.08-.26-.12-.4-.01-.05-.03-.09-.04-.14-.09-.3-.16-.61-.24-.94-.03-.15-.07-.33-.1-.5l-.04-.21s0-.05-.01-.07l-.05-.31c-.02-.14-.04-.3-.06-.47,0-.04,0-.08-.01-.11-.02-.13-.03-.26-.03-.39-.01-.12-.02-.23-.02-.35,0-.13-.01-.26-.02-.39,0-.19,0-.33,0-.47v-26.59c0-5.43,2.98-10.75,8.6-15.37,3.1-2.55,7.02-4.92,11.65-7.03,3.44-1.57,7.28-3,11.4-4.25,3.56-1.08,7.37-2.04,11.3-2.84,3.6-.74,7.39-1.36,11.26-1.85,3.69-.47,7.47-.82,11.24-1.05,7.32-.45,15.13-.45,22.46,0,3.76.23,7.55.58,11.24,1.05,3.87.49,7.66,1.12,11.26,1.85,3.94.8,7.74,1.76,11.3,2.84,4.12,1.25,7.96,2.68,11.4,4.25,4.63,2.11,8.55,4.48,11.65,7.03,5.63,4.62,8.6,9.94,8.6,15.37v26.59c0,.16,0,.31,0,.47,0,0,0,.05,0,.05,0,.11,0,.23-.02.34,0,.12-.01.24-.03.35,0,.14-.02.29-.04.44-.02.2-.04.37-.07.55l-.04.28s0,.06-.01.08l-.04.23c-.03.16-.06.34-.1.52-.06.3-.14.61-.23.9-.01.05-.03.1-.04.14-.04.13-.08.26-.12.39,0,.02-.01.03-.01.05l-.03.1c-.03.09-.06.17-.09.26-.04.12-.09.25-.13.37-.11.3-.23.6-.36.89-.02.05-.05.11-.07.16-.09.19-.18.38-.27.58l-.04.09s-.02.04-.03.06c-.01.02-.03.05-.04.08l-.04.08c-.06.11-.12.23-.18.34-.09.16-.18.33-.28.49-.11.19-.22.38-.34.57-.1.15-.21.33-.32.5-.19.28-.38.55-.57.81-.02.02-.03.04-.05.06-.03.04-.05.07-.08.11-.07.1-.15.2-.22.29l-.11.15c-.08.1-.16.21-.25.31l-.12.15c-.08.1-.16.2-.25.29-.04.04-.07.09-.11.13-.02.03-.06.07-.08.1l-.15.18s-.05.06-.08.09c-.26.29-.53.58-.8.86-.01.01-.03.03-.04.04l-.36.36c-.15.15-.3.3-.45.44-.1.1-.2.19-.3.28-.1.09-.2.18-.3.27-.09.09-.19.17-.28.25-.17.15-.33.29-.5.43-.09.08-.19.16-.29.24-.07.06-.14.12-.21.17-.02.02-.06.05-.08.07l-.07.06c-.12.1-.24.19-.36.29l-.09.07c-.12.1-.25.19-.38.29-.12.1-.23.18-.34.26l-.1.08c-.27.2-.56.42-.86.63-.12.09-.23.17-.35.25l-.16.11c-.13.09-.25.18-.38.26l-.13.09c-.18.12-.39.26-.6.39-.13.09-.27.18-.42.27l-.1.06c-.12.08-.24.15-.37.23-.17.11-.34.21-.51.31-.1.06-.19.12-.29.18l-.23.13c-.05.03-.11.06-.16.1l-.04.02c-.15.09-.28.17-.41.24l-.33.18c-.06.04-.14.08-.21.12l-.05.03c-.16.09-.31.17-.47.26-.16.09-.35.19-.55.29-.15.08-.32.17-.48.25l-.08.04c-.19.1-.37.19-.56.29-.1.05-.2.1-.3.15l-.22.11c-.07.03-.13.07-.2.1l-.06.03s-.03.02-.05.02l-.12.06c-.09.05-.19.09-.28.13-.37.18-.75.36-1.13.53-.05.02-.1.05-.15.07l-.12.06c-.12.05-.24.11-.36.16-.02,0-.04.02-.06.03l-.18.08c-.1.05-.21.09-.31.14-.24.11-.5.22-.76.33-.2.09-.42.18-.65.27-.4.17-.84.35-1.28.52-.42.17-.86.34-1.31.51l-.19.07c-.15.06-.3.11-.46.17-.07.03-.15.06-.22.08h-.04s-.1.05-.15.07c-.1.04-.21.08-.31.11-.23.09-.46.17-.69.25-.18.07-.37.13-.55.19l-.13.05c-.1.04-.22.08-.35.12-.11.04-.22.07-.33.11h0c-.07.03-.14.05-.2.07-.3.1-.6.2-.91.3l-.05.02c-.1.03-.2.07-.31.1-.48.15-.96.31-1.45.45,0,0-.01,0-.01,0-.02,0-.03.01-.05.02-.34.1-.67.2-1.01.3l-.36.11c-.15.04-.31.09-.47.13l-.23.07s-.03,0-.05.01h-.03c-.49.15-.99.28-1.49.42-.1.03-.23.06-.36.09-.14.04-.28.08-.41.11-.18.05-.36.09-.53.14h0s-.02,0-.03,0c-.1.03-.2.05-.3.08l-.14.03c-.18.05-.36.09-.53.13-.31.08-.61.15-.92.23-1.46.35-2.93.68-4.39.97-.02,0-.03,0-.05,0l-.09.02c-.06.01-.13.03-.2.04l-.08.02c-.37.07-.73.15-1.1.22-.13.03-.27.05-.4.08-.31.06-.58.11-.86.16-.12.02-.24.04-.36.07-.35.07-.73.13-1.13.2-.02,0-.03,0-.05,0l-.15.03c-.6.1-1.21.2-1.82.3l-.72.11c-.11.02-.21.03-.32.05h-.07c-.06.02-.12.03-.18.04l-.28.04c-.24.04-.48.07-.73.11h-.04s-.02.01-.04.01c-.16.03-.33.05-.49.07l-.38.05c-.5.07-1.03.14-1.55.21h-.07s-.04.01-.06.02h-.04c-.07.01-.14.02-.2.03-.27.04-.55.07-.82.1l-.33.04c-.19.02-.38.04-.58.07-1.4.17-2.93.32-4.49.46-.3.03-.62.06-.94.08-.02,0-.03,0-.05,0-.26.02-.51.04-.77.06h-.17c-.5.05-.97.09-1.45.12l-1.44.09c-.76.05-1.54.09-2.31.13-.4.02-.81.04-1.23.05-.08,0-.15,0-.22,0-.16,0-.3.01-.43.02l-1.26.04c-.26,0-.51.02-.76.02-.36.01-.77.02-1.17.03-.15,0-.32,0-.48,0-.16,0-.32,0-.48,0h-.23c-.1,0-.23,0-.36,0-.15,0-.28,0-.4,0h-.25c-.23,0-.47,0-.7,0-.3,0-.63,0-.96,0ZM94.66,104.13s.05,0,.08,0c.12,0,.2,0,.28,0h.33c.2,0,.41,0,.62,0,.35,0,.66,0,.98,0,.3,0,.6,0,.9,0,.24,0,.45,0,.65,0h.33c.08,0,.16,0,.24,0,.03,0,.1,0,.12,0,.09,0,.18,0,.28,0h.3c.14,0,.27,0,.41-.01.17,0,.33,0,.5,0,.4,0,.78-.02,1.17-.03.26,0,.48-.01.7-.02l1.28-.04c.12,0,.23,0,.34-.01.04,0,.12,0,.16,0,.02,0,.06,0,.08,0,.4-.01.79-.03,1.19-.05.76-.04,1.5-.08,2.24-.12l1.43-.09c.43-.03.9-.06,1.36-.1l.21-.02c.26-.02.52-.04.78-.06.04,0,.07,0,.11,0,.26-.02.52-.04.78-.07,1.53-.14,3-.29,4.39-.45.19-.02.35-.04.5-.06l.36-.04c.3-.03.56-.07.82-.1.04,0,.07,0,.11-.01.04,0,.09-.01.11-.01h.1c.5-.08,1-.14,1.49-.21l.42-.06c.13-.02.24-.03.35-.05.04,0,.08-.01.12-.02.03,0,.03,0,.06,0,.22-.03.44-.06.65-.1.02,0,.04,0,.06,0l.29-.04s.08-.01.11-.01c0,0,.02,0,.02,0l.16-.02s.09-.01.13-.02c.02,0,.04,0,.06-.01l.71-.11c.57-.09,1.16-.19,1.75-.29.02,0,.03,0,.05,0,.09-.02.15-.03.2-.03.35-.06.7-.12,1.04-.19.12-.02.2-.03.28-.05.03,0,.05-.01.08-.01.26-.05.52-.09.78-.14.14-.03.23-.04.33-.07.03,0,.05-.01.08-.02.36-.07.72-.14,1.08-.21l.1-.02s.03,0,.05,0l.24-.05h0c1.39-.28,2.8-.6,4.2-.93.3-.07.58-.14.87-.21.04-.01.08-.02.12-.03.12-.03.24-.06.36-.09l.18-.04c.07-.02.15-.04.22-.06.06-.02.12-.03.19-.05.13-.03.26-.07.39-.1.02,0,.03,0,.05-.01.1-.03.21-.05.31-.08.02,0,.06-.02.08-.02.09-.02.19-.05.28-.07.51-.14.99-.27,1.46-.4.03,0,.06-.02.1-.03l.2-.06c.14-.04.27-.08.41-.12l.38-.11c.32-.09.63-.18.94-.28.01,0,.03,0,.04-.01.01,0,.02,0,.03-.01.47-.14.93-.29,1.39-.44.02,0,.05-.01.07-.02.07-.02.13-.04.19-.06l.07-.02c.28-.09.55-.18.81-.27.03,0,.05-.02.08-.03l.05-.02s.07-.03.11-.04l.06-.02c.06-.02.12-.04.18-.06.03-.01.06-.02.1-.03.09-.03.18-.06.27-.09l.17-.06c.16-.06.33-.11.5-.17.02,0,.03-.01.05-.02.19-.07.38-.13.57-.21.04-.01.08-.03.12-.04.09-.03.17-.06.26-.09.02,0,.05-.02.07-.03l.04-.02s.07-.03.11-.04c.05-.02.09-.04.14-.05.14-.05.27-.1.41-.15l.19-.07c.4-.15.82-.32,1.24-.48.41-.16.81-.33,1.2-.49.22-.09.41-.17.6-.25.26-.11.49-.21.71-.31l.37-.16c.06-.03.12-.06.18-.08.09-.04.18-.08.27-.12l.12-.05s.08-.04.12-.06c.36-.16.72-.33,1.07-.5.03-.01.06-.03.09-.04.05-.02.11-.05.16-.08l.31-.15s.07-.03.09-.04l.28-.14s.15-.08.2-.1c.17-.08.33-.17.5-.25l.08-.04c.15-.08.3-.15.44-.23.17-.09.34-.18.51-.27.17-.09.3-.16.42-.23l.1-.05s.07-.04.11-.06l.35-.2s.04-.02.05-.03c.08-.04.16-.09.24-.14,0,0,.04-.02.04-.03l.12-.07s.06-.04.09-.05l.31-.18c.06-.04.15-.09.21-.13.11-.06.23-.13.34-.2.04-.02.07-.05.11-.07.1-.06.2-.12.29-.18l.12-.08c.12-.07.23-.15.34-.22.01,0,.05-.03.06-.04.16-.1.32-.21.48-.31l.11-.08c.1-.07.19-.13.28-.19.02-.01.04-.03.06-.04l.18-.12s.08-.05.12-.08c.03-.02.09-.07.12-.09.28-.2.55-.39.81-.59l.15-.11c.05-.04.1-.08.15-.11.02-.01.06-.05.08-.06.09-.07.18-.13.26-.2l.12-.09c.12-.09.22-.18.32-.26l.12-.1s.09-.07.12-.1c.03-.03.06-.05.09-.07.06-.05.12-.1.18-.15.02-.01.03-.03.05-.04.12-.1.24-.21.36-.31,0,0,.04-.03.04-.04.05-.05.1-.09.16-.14.02-.02.04-.04.07-.06.09-.08.16-.14.22-.2.03-.03.05-.05.08-.08.06-.06.12-.12.19-.17.15-.14.26-.25.37-.36l.34-.34c.23-.24.46-.49.68-.73.02-.02.04-.04.06-.06l.07-.08c.04-.05.08-.1.13-.15.01-.01.05-.05.06-.07.06-.08.13-.15.19-.23l.12-.14s.09-.12.15-.19l.12-.15c.04-.06.1-.13.16-.21.02-.03.05-.07.07-.1.01-.02.03-.04.04-.06.15-.2.29-.4.42-.61.08-.12.16-.25.25-.39.08-.13.15-.24.21-.35.02-.03.03-.06.05-.09.05-.09.11-.18.15-.27,0-.02.02-.03.02-.05.05-.08.09-.17.14-.25l.06-.12s0-.01.01-.02v-.03c.08-.15.16-.29.22-.44.02-.04.03-.08.05-.11,0,0,0,0,0,0,.09-.22.18-.43.26-.65,0-.02.01-.04.02-.05.01-.03.02-.06.03-.09.01-.04.03-.08.04-.12.02-.05.03-.09.05-.14v-.04s.02-.03.03-.05c.03-.1.05-.16.07-.23.02-.06.03-.12.05-.17,0,0,0-.01,0-.02.05-.17.1-.37.14-.56.03-.11.04-.19.06-.27l.08-.46s0-.03,0-.05c.01-.08.02-.16.03-.24,0-.01,0-.02,0-.04,0-.03,0-.06.01-.09,0-.02,0-.05,0-.07,0-.06,0-.15.02-.21,0-.03,0-.05,0-.08,0-.03,0-.05,0-.08,0-.07,0-.14,0-.21,0-.12,0-.22,0-.33v-26.59c0-3.83-2.24-7.6-6.65-11.23-2.75-2.26-6.27-4.38-10.48-6.3-3.22-1.47-6.83-2.82-10.73-4-3.4-1.03-7.04-1.95-10.82-2.72-3.47-.71-7.13-1.31-10.87-1.78-3.57-.45-7.24-.79-10.89-1.01-7.12-.44-14.7-.44-21.81,0-3.66.22-7.32.56-10.89,1.01-3.74.48-7.4,1.08-10.87,1.78-3.78.77-7.42,1.68-10.82,2.72-3.9,1.18-7.51,2.53-10.73,4-4.21,1.92-7.73,4.04-10.48,6.3-4.41,3.62-6.65,7.4-6.65,11.23v26.59c0,.1,0,.19,0,.29,0,.1,0,.18.01.25,0,.03,0,.05,0,.08,0,.03,0,.05,0,.08,0,.07.01.14.02.22,0,.02,0,.04,0,.07,0,.02,0,.03,0,.05,0,.02,0,.04,0,.06,0,.09.02.18.03.26l.08.47c.02.11.04.19.05.27.05.22.1.41.15.61,0,0,0,0,0,0,.02.05.03.1.05.15.02.07.04.14.06.21h0s.01.04.02.07c.03.08.04.13.06.18.01.04.03.08.04.12.01.03.02.06.03.09,0,.02.01.04.02.06.08.22.17.43.26.65.09.21.18.39.27.57,0,.01.01.03.02.04l.05.1c.04.09.09.17.14.26,0,.02.02.03.03.05.05.09.1.18.16.28.02.03.03.05.05.08.06.11.13.22.2.33,0,0,.03.04.03.05.08.13.16.25.24.38.12.18.26.38.4.57.01.02.03.04.04.05.03.04.06.08.09.11.06.08.12.16.18.24l.1.13c.06.08.12.15.18.23l.09.1c.06.08.13.15.19.23.02.02.03.04.05.05.06.07.1.12.14.16l.08.09s.04.04.05.06c.22.25.45.49.68.73l.34.34c.12.12.23.23.35.34.08.08.14.14.21.19.03.03.06.05.09.08.07.07.15.13.22.2.02.02.05.04.07.06.06.06.12.11.18.16.14.13.26.23.38.33.02.02.04.03.06.05.06.05.12.1.18.15.03.02.05.04.08.07.04.03.07.06.11.09.01.01.03.02.04.03l.53.43c.09.07.18.14.27.21.02.01.04.03.06.05.06.05.11.09.17.13,0,0,.04.03.05.03l.1.08c.28.21.54.4.8.59.04.03.09.06.13.1.04.03.08.06.12.09l.19.13s.03.02.05.03c.09.07.19.13.28.19l.07.05s.03.02.04.03c.15.1.31.21.47.31.16.1.28.18.4.25l.13.08c.1.06.19.12.29.18.03.02.07.04.1.06.11.07.23.14.34.21.06.03.12.07.17.11l.34.2s.06.04.1.06l.12.07c.11.06.19.11.27.16.02.01.04.02.06.03l.35.2s.07.04.1.06l.09.05c.13.07.26.14.39.22.19.11.35.19.51.27l.56.29c.16.08.33.17.49.25.04.02.08.04.12.06l.36.18s.05.03.08.04l.32.15c.05.03.11.05.16.08.02,0,.04.02.06.03.37.18.74.35,1.12.53.03.01.06.03.1.05l.12.05c.09.04.18.08.27.12.06.02.12.05.17.08l.36.16c.24.11.47.21.7.3.21.09.4.17.59.25.43.18.83.34,1.23.5.42.17.84.33,1.26.49l.18.07c.13.05.27.1.4.15.05.02.09.03.14.05.04.01.08.03.11.04l.05.02s.05.02.06.02c.09.03.17.06.26.09.04.01.08.03.12.04.19.07.38.14.57.21.02,0,.03.01.05.02.17.06.34.12.52.18l.07.02v-4.41c0-1.48,1.2-2.68,2.68-2.68s2.68,1.2,2.68,2.68v6.09s.08.02.12.03c.02,0,.04.01.06.02.59.16,1.19.33,1.8.49.28.07.55.14.83.22.02,0,.04,0,.06.01l.93.23c.16.04.31.09.45.15.15,0,.3.03.45.07.35.08.71.17,1.08.25.29-1.16,1.35-2.02,2.6-2.02,1.48,0,2.68,1.2,2.68,2.68v.44c.17.03.34.06.52.09.03,0,.05,0,.08.01.08.02.15.03.23.04.02,0,.05,0,.07.01.13.03.26.05.39.07.04,0,.08.01.12.02.17.03.34.06.52.09.03,0,.09.02.16.03.02,0,.07.01.09.01.59.1,1.18.2,1.78.3l.69.11s.04,0,.06.01c.04,0,.09.01.13.02l.16.02s.02,0,.03,0c.04,0,.08.01.11.01l.27.04s.06,0,.08.01c.22.03.43.06.65.1.03,0,.06,0,.08.01.02,0,.06,0,.1.01.11.02.22.03.33.05l.42.06c.51.07,1,.14,1.5.2h.1s.09.02.12.03c0,0-.02,0-.04,0,.05,0,.11,0,.16.02.27.03.53.07.8.1l.38.05c.15.02.3.04.46.05,1.42.17,2.89.32,4.4.45.29.03.55.05.81.07.04,0,.07,0,.1,0,.25.02.51.04.76.06l.25.02c.44.03.9.07,1.36.1l1.4.09c.74.05,1.48.09,2.23.12.41.02.8.04,1.2.05.02,0,.04,0,.06,0h.06s.05,0,.09,0c.14,0,.25.01.36.02l1.29.04c.21,0,.43.01.65.02.42.01.81.02,1.19.03.18,0,.34,0,.51,0,.14,0,.27,0,.41,0h.26c.13,0,.22,0,.31,0ZM118.71,102.81h0,0ZM118.72,102.81s0,0-.01,0c0,0,0,0,.01,0ZM75.13,102.81s0,0,0,0c0,0,0,0,0,0ZM122.37,102.3s-.03,0-.05.01c.02,0,.03,0,.05-.01ZM71.52,102.3s.01,0,.02,0c0,0-.01,0-.02,0ZM145.6,96.58s0,0,0,0c0,0,0,0,0,0ZM48.25,96.58s0,0,0,0c0,0,0,0,0,0ZM48.1,96.52s.02,0,.02,0c0,0-.02,0-.02,0ZM145.74,96.52s0,0,0,0c0,0,0,0,0,0ZM150.94,94.41s0,0,0,0c0,0,0,0,0,0ZM151.25,94.26s0,0,0,0c0,0,0,0,0,0ZM42.61,94.26s0,0,0,0c0,0,0,0,0,0ZM171.75,84.2s0,0,0,0c0,0,0,0,0,0ZM171.75,84.2h0s0,0,0,0ZM171.82,84.08s-.01.02-.02.04c0-.01.01-.02.02-.04ZM24.41,82.84h0,0ZM167.39,80.92s0,0,0,0c0,0,0,0,0,0ZM167.39,80.91s0,0,0,0c0,0,0,0,0,0ZM25.92,79.36s0,0,0,0c0,0,0,0,0,0ZM167.94,79.35s0,0,0,0c0,0,0,0,0,0ZM167.94,79.35s0,0,0,0c0,0,0,0,0,0ZM167.94,79.34s0,0,0,0c0,0,0,0,0,0ZM167.94,79.34s0,0,0,0c0,0,0,0,0,0ZM168.19,78.12h0s0,0,0,0ZM168.44,77c-.12.24-.18.48-.21.69.04-.24.11-.47.21-.69ZM63.73,95.04c-1.48,0-2.68-1.2-2.68-2.68v-11.89c0-1.48,1.2-2.68,2.68-2.68s2.68,1.2,2.68,2.68v11.89c0,1.48-1.2,2.68-2.68,2.68Z"/>
    <g>
      <path class="cls-3" d="M30.54,92.76c-1.48,0-2.68-1.2-2.68-2.68v-26.59c0-1.48,1.2-2.68,2.68-2.68s2.68,1.2,2.68,2.68v26.59c0,1.48-1.2,2.68-2.68,2.68Z"/>
      <path class="cls-3" d="M41.6,99.43c-1.48,0-2.68-1.2-2.68-2.68v-26.59c0-1.48,1.2-2.68,2.68-2.68s2.68,1.2,2.68,2.68v26.59c0,1.48-1.2,2.68-2.68,2.68Z"/>
      <path class="cls-3" d="M52.67,103.55c-1.48,0-2.68-1.2-2.68-2.68v-26.59c0-1.48,1.2-2.68,2.68-2.68s2.68,1.2,2.68,2.68v26.59c0,1.48-1.2,2.68-2.68,2.68Z"/>
      <path class="cls-3" d="M63.73,106.33c-1.48,0-2.68-1.2-2.68-2.68v-26.59c0-1.48,1.2-2.68,2.68-2.68s2.68,1.2,2.68,2.68v26.59c0,1.48-1.2,2.68-2.68,2.68Z"/>
      <path class="cls-3" d="M74.79,108.15c-1.48,0-2.68-1.2-2.68-2.68v-26.59c0-1.48,1.2-2.68,2.68-2.68s2.68,1.2,2.68,2.68v26.59c0,1.48-1.2,2.68-2.68,2.68Z"/>
      <path class="cls-3" d="M85.86,109.18c-1.48,0-2.68-1.2-2.68-2.68v-26.59c0-1.48,1.2-2.68,2.68-2.68s2.68,1.2,2.68,2.68v26.59c0,1.48-1.2,2.68-2.68,2.68Z"/>
      <path class="cls-3" d="M96.93,109.51c-1.48,0-2.68-1.2-2.68-2.68v-26.59c0-1.48,1.2-2.68,2.68-2.68s2.68,1.2,2.68,2.68v26.59c0,1.48-1.2,2.68-2.68,2.68Z"/>
      <path class="cls-3" d="M107.99,109.18c-1.48,0-2.68-1.2-2.68-2.68v-26.59c0-1.48,1.2-2.68,2.68-2.68s2.68,1.2,2.68,2.68v26.59c0,1.48-1.2,2.68-2.68,2.68Z"/>
      <path class="cls-3" d="M119.06,108.15c-1.48,0-2.68-1.2-2.68-2.68v-26.59c0-1.48,1.2-2.68,2.68-2.68s2.68,1.2,2.68,2.68v26.59c0,1.48-1.2,2.68-2.68,2.68Z"/>
      <path class="cls-3" d="M130.12,106.33c-1.48,0-2.68-1.2-2.68-2.68v-26.59c0-1.48,1.2-2.68,2.68-2.68s2.68,1.2,2.68,2.68v26.59c0,1.48-1.2,2.68-2.68,2.68Z"/>
      <path class="cls-3" d="M141.19,103.55c-1.48,0-2.68-1.2-2.68-2.68v-26.59c0-1.48,1.2-2.68,2.68-2.68s2.68,1.2,2.68,2.68v26.59c0,1.48-1.2,2.68-2.68,2.68Z"/>
      <path class="cls-3" d="M152.25,99.43c-1.48,0-2.68-1.2-2.68-2.68v-26.59c0-1.48,1.2-2.68,2.68-2.68s2.68,1.2,2.68,2.68v26.59c0,1.48-1.2,2.68-2.68,2.68Z"/>
      <path class="cls-3" d="M163.32,92.76c-1.48,0-2.68-1.2-2.68-2.68v-26.59c0-1.48,1.2,0,2.68,0s2.68-1.48,2.68,0v26.59c0,1.48-1.2,2.68-2.68,2.68Z"/>
    </g>
  </g>
</svg>