<?xml version="1.0" encoding="UTF-8"?>
<svg id="Layer_1" data-name="Layer 1" xmlns="http://www.w3.org/2000/svg" xmlns:xlink="http://www.w3.org/1999/xlink" viewBox="0 0 222.99 207.45">
  <defs>
    <style>
      .cls-1 {
        fill: #29abe2;
      }

      .cls-2 {
        fill: url(#linear-gradient-2);
      }

      .cls-3 {
        fill: #fff;
      }

      .cls-4 {
        fill: none;
      }

      .cls-5 {
        fill: red;
      }

      .cls-6 {
        fill: url(#linear-gradient);
      }
    </style>
    <linearGradient id="linear-gradient" x1="33.79" y1="82.22" x2="189.84" y2="82.22" gradientUnits="userSpaceOnUse">
      <stop offset="0" stop-color="#ff0"/>
      <stop offset="1" stop-color="#fbb03b"/>
    </linearGradient>
    <linearGradient id="linear-gradient-2" x1="64.36" y1="82.22" x2="158.63" y2="82.22" xlink:href="#linear-gradient"/>
  </defs>
  <path class="cls-6" d="M46.88,47.14l.52,14.63-13.61,16.58,1.18,8.68,11.78,15.54v17.35l1.94,8.55,5.44,2.97,16.71,4.41,9.71,13.6,9.45,6.22,16.06-3.5,4.09-3.88,21.12,8.52,9.88-3.85,10.62-16.58,16.96-3.76,7.25-8.68-.52-21.11,14.37-19.68-13.47-20.98-1.42-25.38-22.66-8.29-15.28-20.84s-25.38,6.53-25.51,7.14-22.27-7.14-22.27-7.14l-8.81,5.04-7.25,13.6-24.73,8.8-1.55,12.05Z"/>
  <path class="cls-3" d="M88.58,49.73l-11.65,25.38-.52,26.94s10.1,13.21,12.17,13.73,25.64,5.18,25.64,5.18c0,0,24.86-12.03,24.86-13.53s12.95-22.73,11.65-27.14-4.14-16.83-5.18-17.87-30.82-21.76-30.82-21.76l-26.16,9.06Z"/>
  <path class="cls-5" d="M182.41,180.08l-24.98-5.07c-1.45-.31-2.9.48-3.45,1.9l-9.21,23.74c-.9,2.24-4,2.45-5.14.35l-26.47-48.45-1.59-2.9-.07-.14-1.35-2.45c.45-.07.9-.1,1.35-.1s.9.03,1.35.1c1.21.14,2.38.48,3.52,1.04l10.04,4.9c1.55.79,3.21,1.14,4.87,1.14,3.97,0,7.8-2.14,9.77-5.87l5.25-9.9c1.62-3,4.52-5.11,7.87-5.69l7-1.24,1.35,2.48,1.35,2.42,21.6,39.61c1.17,2.1-.69,4.62-3.04,4.14Z"/>
  <path class="cls-5" d="M111.5,146.96c.45,0,.9.03,1.35.1l-1.35,2.45-.07.14-1.59,2.9-26.47,48.45c-1.14,2.1-4.24,1.9-5.14-.35l-9.21-23.74c-.52-1.42-2-2.21-3.45-1.9l-24.98,5.07c-2.35.48-4.21-2.04-3.04-4.14l21.6-39.61,1.35-2.42,1.35-2.48,7,1.24c3.35.59,6.25,2.69,7.87,5.69l5.25,9.9c1.97,3.73,5.8,5.87,9.77,5.87,1.66,0,3.31-.34,4.87-1.14l10.04-4.9c1.14-.55,2.31-.9,3.52-1.04.45-.07.9-.1,1.35-.1Z"/>
  <g>
    <path class="cls-4" d="M158.63,82.22c0,10.42-3.38,20.08-9.14,27.88-7.87,10.7-20.12,17.94-34.09,19.08-1.28.1-2.59.17-3.9.17s-2.62-.07-3.9-.17c-13.97-1.14-26.22-8.38-34.09-19.08-5.76-7.8-9.14-17.46-9.14-27.88,0-26.05,21.12-47.14,47.14-47.14s47.14,21.08,47.14,47.14Z"/>
    <path class="cls-4" d="M185.34,72.66l-7.76-8.04c-1.83-1.86-2.66-4.42-2.28-7l1.55-11.08c.48-3.55-.38-7.11-2.48-10.01-2.11-2.9-5.21-4.83-8.73-5.45l-11.01-1.93c-2.59-.45-4.76-2.04-6-4.35l-5.25-9.87c-2.38-4.49-7.04-7.28-12.11-7.28-2.11,0-4.14.45-6.04,1.38l-10.04,4.93c-1.14.55-2.42.83-3.69.83s-2.55-.28-3.69-.83l-10.04-4.93c-1.9-.93-3.93-1.38-6.04-1.38-5.07,0-9.73,2.79-12.11,7.28l-5.25,9.87c-1.24,2.31-3.42,3.9-5.97,4.35l-11.04,1.93c-3.52.62-6.63,2.55-8.73,5.45-2.11,2.9-2.97,6.45-2.48,10.01l1.59,11.08c.34,2.59-.48,5.14-2.31,7l-7.76,8.04c-2.48,2.59-3.86,5.97-3.86,9.56s1.38,6.97,3.86,9.56l7.76,8.01c1.83,1.9,2.66,4.45,2.31,7.04l-1.59,11.08c-.48,3.55.38,7.11,2.48,10.01,2.1,2.86,5.21,4.83,8.73,5.45l3.14.55,7.9,1.38c2.55.45,4.73,2,5.97,4.31l5.25,9.9c2.38,4.49,7.04,7.28,12.11,7.28,2.1,0,4.14-.48,6.04-1.38l10.04-4.93c1.1-.55,2.38-.83,3.62-.83h.14c1.24,0,2.52.28,3.62.83l10.04,4.93c1.9.9,3.93,1.38,6.04,1.38,5.07,0,9.73-2.8,12.11-7.28l5.25-9.9c1.24-2.31,3.42-3.86,6-4.31l7.87-1.38,3.14-.55c3.52-.62,6.62-2.59,8.73-5.45,2.1-2.9,2.97-6.45,2.48-10.01l-1.55-11.08c-.38-2.59.45-5.14,2.28-7.04l7.76-8.01c2.48-2.59,3.87-5.97,3.87-9.56s-1.38-6.97-3.87-9.56ZM183.44,89.92l-7.8,8.04c-2.35,2.45-3.49,5.87-3,9.25l1.59,11.08c.83,5.9-3.17,11.42-9.08,12.46l-4,.69-7,1.24c-3.35.59-6.25,2.69-7.87,5.69l-5.25,9.9c-1.97,3.73-5.8,5.87-9.77,5.87-1.66,0-3.31-.34-4.87-1.14l-10.04-4.9c-1.14-.55-2.31-.9-3.52-1.04-.45-.07-.9-.1-1.35-.1s-.9.03-1.35.1c-1.21.14-2.38.48-3.52,1.04l-10.04,4.9c-1.55.79-3.21,1.14-4.87,1.14-3.97,0-7.8-2.14-9.77-5.87l-5.25-9.9c-1.62-3-4.52-5.11-7.87-5.69l-7-1.24-4-.69c-5.9-1.03-9.9-6.56-9.08-12.46l1.59-11.08c.48-3.38-.62-6.8-3-9.25l-7.8-8.04c-4.14-4.28-4.14-11.11,0-15.39l7.8-8.04c2.38-2.45,3.49-5.87,3-9.25l-1.59-11.08c-.83-5.9,3.17-11.42,9.08-12.46l11.01-1.93c3.35-.59,6.25-2.69,7.87-5.69l5.25-9.9c1.97-3.73,5.8-5.87,9.77-5.87,1.66,0,3.31.34,4.87,1.1l10.04,4.93c1.55.72,3.21,1.1,4.87,1.1s3.31-.38,4.87-1.1l10.04-4.93c1.55-.76,3.21-1.1,4.87-1.1,3.97,0,7.8,2.14,9.77,5.87l5.25,9.9c1.62,3,4.52,5.11,7.87,5.69l11.01,1.93c5.9,1.03,9.9,6.56,9.08,12.46l-1.59,11.08c-.48,3.38.66,6.8,3,9.25l7.8,8.04c4.14,4.28,4.14,11.11,0,15.39Z"/>
    <path class="cls-1" d="M187.24,93.61c3-3.07,4.62-7.11,4.62-11.39s-1.62-8.32-4.62-11.39l-7.76-8.04c-1.24-1.28-1.79-3.04-1.55-4.8l1.55-11.08c.62-4.24-.45-8.49-2.97-11.94-2.52-3.45-6.21-5.76-10.42-6.52l-11.01-1.93c-1.76-.31-3.24-1.38-4.11-2.97l-5.25-9.87c-1.41-2.66-3.52-4.9-6.14-6.42-2.52-1.48-5.38-2.28-8.32-2.28-2.52,0-4.93.55-7.21,1.66l-10.04,4.9c-.76.38-1.66.59-2.52.59s-1.73-.21-2.52-.59l-10.04-4.9c-2.28-1.1-4.69-1.66-7.21-1.66-2.93,0-5.8.79-8.32,2.28-2.62,1.52-4.73,3.76-6.14,6.42l-5.25,9.87c-.86,1.59-2.35,2.66-4.11,2.97l-11.01,1.93c-4.21.76-7.9,3.07-10.42,6.52-2.52,3.45-3.55,7.69-2.97,11.94l1.55,11.08c.28,1.76-.31,3.52-1.55,4.8l-7.76,8.04c-2.97,3.07-4.62,7.11-4.62,11.39s1.66,8.32,4.62,11.39l7.76,8.04c1.24,1.28,1.83,3.04,1.55,4.8l-1.55,11.08c-.59,4.24.45,8.49,2.97,11.94,2.52,3.45,6.21,5.76,10.42,6.49l2.24.38,8.76,1.55c1.76.31,3.24,1.41,4.11,2.97l5.25,9.9c1.41,2.66,3.52,4.9,6.14,6.42,2.52,1.48,5.38,2.28,8.32,2.28,2.52,0,4.93-.55,7.21-1.66l10.04-4.93c.28-.14.55-.24.86-.31.52-.17,1.1-.24,1.66-.24s1.1.07,1.66.24c.31.07.59.17.86.31l10.04,4.93c2.28,1.1,4.69,1.66,7.21,1.66,2.93,0,5.8-.79,8.32-2.28,2.62-1.52,4.73-3.76,6.14-6.42l5.25-9.9c.86-1.55,2.35-2.66,4.11-2.97l8.76-1.55,2.24-.38c4.21-.72,7.9-3.04,10.42-6.49,2.52-3.45,3.59-7.7,2.97-11.94l-1.55-11.08c-.24-1.76.31-3.52,1.55-4.8l7.76-8.04ZM172.64,107.2l1.59,11.08c.83,5.9-3.17,11.42-9.08,12.46l-4,.69-7,1.24c-3.35.59-6.25,2.69-7.87,5.69l-5.25,9.9c-1.97,3.73-5.8,5.87-9.77,5.87-1.66,0-3.31-.34-4.87-1.14l-10.04-4.9c-1.14-.55-2.31-.9-3.52-1.04-.45-.07-.9-.1-1.35-.1s-.9.03-1.35.1c-1.21.14-2.38.48-3.52,1.04l-10.04,4.9c-1.55.79-3.21,1.14-4.87,1.14-3.97,0-7.8-2.14-9.77-5.87l-5.25-9.9c-1.62-3-4.52-5.11-7.87-5.69l-7-1.24-4-.69c-5.9-1.03-9.9-6.56-9.08-12.46l1.59-11.08c.48-3.38-.62-6.8-3-9.25l-7.8-8.04c-4.14-4.28-4.14-11.11,0-15.39l7.8-8.04c2.38-2.45,3.49-5.87,3-9.25l-1.59-11.08c-.83-5.9,3.17-11.42,9.08-12.46l11.01-1.93c3.35-.59,6.25-2.69,7.87-5.69l5.25-9.9c1.97-3.73,5.8-5.87,9.77-5.87,1.66,0,3.31.34,4.87,1.1l10.04,4.93c1.55.72,3.21,1.1,4.87,1.1s3.31-.38,4.87-1.1l10.04-4.93c1.55-.76,3.21-1.1,4.87-1.1,3.97,0,7.8,2.14,9.77,5.87l5.25,9.9c1.62,3,4.52,5.11,7.87,5.69l11.01,1.93c5.9,1.03,9.9,6.56,9.08,12.46l-1.59,11.08c-.48,3.38.66,6.8,3,9.25l7.8,8.04c4.14,4.28,4.14,11.11,0,15.39l-7.8,8.04c-2.35,2.45-3.49,5.87-3,9.25Z"/>
  </g>
  <path class="cls-2" d="M111.5,35.09c-26.02,0-47.14,21.08-47.14,47.14,0,10.42,3.38,20.08,9.14,27.88,7.87,10.7,20.12,17.94,34.09,19.08,1.28.1,2.59.17,3.9.17s2.62-.07,3.9-.17c13.98-1.14,26.23-8.38,34.09-19.08,5.76-7.8,9.14-17.46,9.14-27.88,0-26.05-21.12-47.14-47.14-47.14ZM137.24,78.51l-9.22,10.44c-.46.52-.68,1.2-.61,1.89l1.32,13.86c.18,1.89-1.73,3.28-3.47,2.52l-12.77-5.54c-.63-.27-1.35-.27-1.98,0l-12.77,5.54c-1.74.75-3.65-.63-3.47-2.52l1.32-13.86c.07-.69-.16-1.37-.61-1.89l-9.22-10.44c-1.26-1.42-.52-3.67,1.33-4.08l13.59-3.03c.67-.15,1.25-.57,1.6-1.17l7.08-11.99c.96-1.63,3.33-1.63,4.29,0l7.08,11.99c.35.59.93,1.02,1.6,1.17l13.59,3.03c1.85.41,2.58,2.66,1.33,4.08Z"/>
</svg>